<svg width="231" height="134" fill="none" xmlns="http://www.w3.org/2000/svg"><path d="M55.029 124.761v-.869h3.59v.869l-1.118.192v3.442h4.848v-3.442l-1.12-.192v-.869h3.591v.869l-1.119.192v7.849l1.12.192v.862h-3.592v-.862l1.12-.192v-3.346H57.5v3.346l1.119.192v.862h-3.591v-.862l1.119-.192v-7.849l-1.12-.192zM70.808 133.856a9.226 9.226 0 01-.096-.54 5.711 5.711 0 01-.048-.479c-.26.333-.588.611-.982.834-.389.219-.806.329-1.25.329-.773 0-1.362-.187-1.764-.561-.403-.379-.605-.91-.605-1.595 0-.702.284-1.243.852-1.622.572-.383 1.355-.575 2.348-.575h1.394v-.862c0-.433-.137-.776-.412-1.026-.274-.256-.657-.384-1.147-.384a2.87 2.87 0 00-.899.13 1.699 1.699 0 00-.625.356l-.144.78h-1.044v-1.437a3.975 3.975 0 011.23-.643 4.819 4.819 0 011.565-.246c.842 0 1.524.214 2.046.643.522.429.783 1.042.783 1.841v3.846c.005.091.011.182.02.274l.55.075v.862h-1.772zm-2.176-.985c.448 0 .858-.107 1.229-.322.37-.214.636-.472.796-.773v-1.218h-1.442c-.554 0-.993.127-1.318.383-.32.255-.48.566-.48.931 0 .324.1.572.301.746.202.168.506.253.914.253zM73.706 132.994l1.12-.192v-5.29l-1.12-.191v-.87h2.472v6.351l1.12.192v.862h-3.592v-.862zm2.472-8.438h-1.353v-1.376h1.353v1.376zM78.334 127.321v-.87h2.328l.13 1.075c.211-.379.47-.675.777-.89a1.834 1.834 0 011.064-.321c.105 0 .213.009.323.027.114.014.201.03.26.048l-.178 1.252-.769-.041c-.357 0-.657.085-.9.253-.242.165-.43.397-.563.698v4.25l1.12.192v.862h-3.592v-.862l1.12-.192v-5.29l-1.12-.191zM87.357 132.946c.449 0 .843-.137 1.181-.411.344-.278.515-.618.515-1.019h1.216l.013.041c.023.639-.263 1.207-.858 1.704-.59.493-1.28.739-2.067.739-1.08 0-1.906-.351-2.479-1.054-.567-.703-.851-1.585-.851-2.648v-.288c0-1.054.286-1.932.858-2.635.572-.707 1.396-1.06 2.472-1.06.595 0 1.129.098 1.6.294.476.196.87.465 1.181.807l.062 1.643h-1.078l-.295-1.164a1.794 1.794 0 00-.618-.376 2.376 2.376 0 00-.852-.144c-.71 0-1.217.256-1.524.767-.302.506-.453 1.129-.453 1.868v.288c0 .757.15 1.389.453 1.895.302.502.81.753 1.524.753zM96.916 132.761a2.49 2.49 0 01-.907.917c-.366.215-.79.322-1.27.322-.806 0-1.435-.258-1.888-.773-.454-.516-.68-1.319-.68-2.409v-3.306l-.852-.191v-.87h2.205v4.38c0 .79.116 1.333.35 1.629.233.297.597.445 1.092.445.48 0 .876-.096 1.188-.287.316-.197.554-.473.714-.829v-4.277l-.996-.191v-.87h2.349v6.351l.851.192v.862h-2.067l-.09-1.095zM102.505 124.665v1.786h1.408v1h-1.408v4.496c0 .347.071.591.213.732.147.142.339.212.577.212.119 0 .252-.009.398-.027.151-.023.277-.046.378-.069l.185.924c-.128.083-.315.149-.563.199a3.4 3.4 0 01-.741.082c-.55 0-.987-.164-1.312-.493-.325-.333-.487-.853-.487-1.56v-4.496h-1.175v-1h1.175v-1.786h1.352zM110.979 128.778h-1.016l-.22-.889a1.77 1.77 0 00-.625-.37 2.32 2.32 0 00-.844-.144c-.481 0-.838.105-1.072.315a.987.987 0 00-.35.76c0 .292.103.522.309.691.206.169.625.319 1.257.452.938.2 1.636.474 2.094.821.458.342.687.803.687 1.382 0 .657-.268 1.189-.804 1.595-.531.406-1.227.609-2.087.609a5.537 5.537 0 01-1.518-.192 4.083 4.083 0 01-1.201-.568l-.007-1.69h1.016l.254.992c.156.142.366.244.632.308.27.064.545.096.824.096.481 0 .856-.096 1.126-.287.275-.197.412-.452.412-.767a.912.912 0 00-.343-.732c-.225-.192-.653-.358-1.284-.5-.902-.196-1.582-.463-2.04-.8-.458-.338-.687-.794-.687-1.369 0-.602.257-1.116.77-1.54.517-.424 1.188-.636 2.012-.636a4.89 4.89 0 011.517.219c.449.146.822.349 1.119.609l.069 1.635zM115.861 131.174c0-.557.161-1.043.481-1.458.325-.42.808-.84 1.449-1.259-.357-.452-.623-.854-.797-1.205a2.467 2.467 0 01-.261-1.095c0-.771.222-1.364.666-1.779.449-.42 1.065-.63 1.848-.63.723 0 1.311.208 1.764.623.454.415.68.915.68 1.499a1.9 1.9 0 01-.364 1.163c-.238.324-.593.657-1.064.999l-.749.548 2.335 2.799c.188-.297.334-.625.44-.986.105-.36.158-.741.158-1.143h1.208c0 .598-.089 1.152-.268 1.663-.178.511-.437.97-.776 1.376l1.271 1.533-.014.034h-1.573l-.583-.698a4.209 4.209 0 01-1.216.63 4.532 4.532 0 01-1.38.212c-.993 0-1.785-.262-2.376-.787-.586-.525-.879-1.205-.879-2.039zm3.255 1.772c.33 0 .655-.055.975-.164.321-.114.623-.276.907-.486l-2.479-2.977-.275.198c-.416.311-.693.607-.831.89-.133.283-.199.538-.199.767 0 .515.163.939.488 1.272.325.334.796.5 1.414.5zm-1.03-6.803c0 .242.062.495.186.76.123.26.309.545.556.856l.947-.651c.261-.173.438-.36.529-.561.096-.205.144-.431.144-.677 0-.279-.112-.525-.336-.739-.22-.215-.508-.322-.865-.322-.371 0-.657.13-.859.39-.201.256-.302.57-.302.944zM135.439 126.835h-1.024l-.254-1.424c-.206-.173-.48-.317-.824-.431a3.79 3.79 0 00-1.195-.171c-.718 0-1.27.153-1.654.458a1.433 1.433 0 00-.577 1.184c0 .434.194.797.583 1.089.394.287 1.028.54 1.903.759 1.052.26 1.851.644 2.396 1.15.549.506.824 1.134.824 1.882 0 .803-.33 1.449-.989 1.937-.654.488-1.513.732-2.575.732-.769 0-1.453-.125-2.053-.376-.595-.251-1.08-.58-1.456-.986v-1.855h1.017l.26 1.431c.261.214.573.39.934.527.362.137.795.205 1.298.205.682 0 1.22-.144 1.614-.431a1.37 1.37 0 00.597-1.17c0-.457-.171-.838-.515-1.143-.343-.311-.95-.571-1.819-.78-1.058-.251-1.884-.621-2.479-1.109-.595-.488-.893-1.102-.893-1.841 0-.78.332-1.428.996-1.944.663-.52 1.526-.78 2.588-.78.701 0 1.337.121 1.909.363.577.237 1.04.527 1.388.869v1.855zM136.709 132.994l1.119-.192v-8.561l-1.119-.192v-.869h2.472v4.257c.256-.356.57-.632.941-.828.37-.196.782-.294 1.236-.294.796 0 1.414.237 1.854.711.439.475.659 1.205.659 2.19v3.586l1.119.192v.862h-3.591v-.862l1.119-.192v-3.599c0-.612-.133-1.063-.398-1.355-.261-.292-.652-.438-1.174-.438-.371 0-.71.088-1.017.266a2.193 2.193 0 00-.748.712v4.414l1.119.192v.862h-3.591v-.862zM150.82 133.856a9.477 9.477 0 01-.096-.54 5.588 5.588 0 01-.048-.479 3.287 3.287 0 01-.982.834 2.509 2.509 0 01-1.25.329c-.773 0-1.362-.187-1.765-.561-.402-.379-.604-.91-.604-1.595 0-.702.284-1.243.852-1.622.572-.383 1.355-.575 2.348-.575h1.394v-.862c0-.433-.137-.776-.412-1.026-.275-.256-.657-.384-1.147-.384-.338 0-.638.044-.899.13a1.693 1.693 0 00-.625.356l-.144.78h-1.044v-1.437a3.973 3.973 0 011.229-.643 4.823 4.823 0 011.566-.246c.842 0 1.524.214 2.046.643.522.429.783 1.042.783 1.841v3.846c.004.091.011.182.02.274l.55.075v.862h-1.772zm-2.177-.985c.449 0 .859-.107 1.229-.322.371-.214.637-.472.797-.773v-1.218h-1.442c-.554 0-.993.127-1.318.383-.321.255-.481.566-.481.931 0 .324.101.572.302.746.201.168.506.253.913.253zM156.156 127.321l-.893.136 1.531 4.216.124.534h.041l.13-.534 1.484-4.216-.9-.136v-.87h2.87v.87l-.611.102-2.492 6.433h-1.023l-2.521-6.433-.611-.102v-.87h2.871v.87zM164.76 134c-1.035 0-1.859-.342-2.472-1.027-.609-.688-.914-1.58-.914-2.675v-.302c0-1.053.314-1.929.941-2.628.632-.702 1.378-1.053 2.239-1.053.998 0 1.753.301 2.266.903.517.602.776 1.405.776 2.409v.842h-4.821l-.02.034c.013.712.194 1.298.542 1.759.348.456.836.684 1.463.684.457 0 .858-.064 1.201-.192.348-.132.648-.312.9-.54l.529.876c-.266.255-.618.472-1.058.65-.435.173-.959.26-1.572.26zm-.206-6.625c-.454 0-.84.192-1.161.575-.32.379-.517.856-.59 1.431l.013.034h3.427v-.178c0-.529-.142-.972-.426-1.328-.284-.356-.705-.534-1.263-.534zM174.62 128.778h-1.016l-.22-.889a1.76 1.76 0 00-.625-.37 2.315 2.315 0 00-.844-.144c-.481 0-.838.105-1.071.315a.985.985 0 00-.351.76c0 .292.103.522.309.691.206.169.625.319 1.257.452.939.2 1.637.474 2.094.821.458.342.687.803.687 1.382 0 .657-.268 1.189-.803 1.595-.531.406-1.227.609-2.088.609a5.525 5.525 0 01-1.517-.192 4.077 4.077 0 01-1.202-.568l-.007-1.69h1.016l.254.992c.156.142.367.244.632.308.27.064.545.096.824.096.481 0 .856-.096 1.126-.287.275-.197.412-.452.412-.767a.912.912 0 00-.343-.732c-.224-.192-.652-.358-1.284-.5-.902-.196-1.582-.463-2.039-.8-.458-.338-.687-.794-.687-1.369 0-.602.256-1.116.769-1.54.517-.424 1.188-.636 2.012-.636.563 0 1.069.073 1.517.219a3.17 3.17 0 011.12.609l.068 1.635zM83.141 9.102L83.883 9 87.378 0h1.16l3.434 9 .735.102v.862h-2.87v-.862l.755-.13-.66-1.834H85.93l-.68 1.834.756.13v.862H83.14v-.862zm3.207-3.093h3.172L87.97 1.73h-.042l-1.58 4.278zM95.46 3.429l-.851.15.968 3.689.158.896h.041l.192-.896 1.483-4.708h1.085l1.491 4.708.212 1h.042l.199-1 .913-3.689-.865-.15v-.87h2.829v.87l-.646.095-1.874 6.44h-1.092l-1.442-4.51-.309-1.245-.041.007-.289 1.238-1.414 4.51h-1.092l-1.875-6.44-.652-.095v-.87h2.83v.87zM107.848 10.108c-1.035 0-1.859-.342-2.472-1.026-.609-.69-.914-1.581-.914-2.676v-.301c0-1.054.314-1.93.941-2.628.632-.703 1.378-1.054 2.239-1.054.998 0 1.753.3 2.266.903.517.602.776 1.405.776 2.409v.842h-4.821l-.02.034c.013.712.194 1.298.542 1.759.348.456.836.684 1.463.684.458 0 .858-.064 1.201-.191.348-.133.648-.313.9-.541l.529.876c-.266.255-.618.472-1.058.65-.435.173-.959.26-1.572.26zm-.206-6.625c-.453 0-.84.192-1.161.575-.32.379-.517.856-.59 1.43l.014.035h3.426v-.178c0-.53-.142-.972-.426-1.328-.284-.356-.705-.534-1.263-.534zM117.708 4.886h-1.016l-.22-.89a1.781 1.781 0 00-.624-.369 2.329 2.329 0 00-.845-.144c-.481 0-.838.105-1.071.315a.984.984 0 00-.35.76c0 .292.103.522.309.691.206.169.624.32 1.256.452.939.2 1.637.474 2.095.821.457.342.686.803.686 1.382 0 .657-.268 1.189-.803 1.595-.531.406-1.227.61-2.088.61a5.536 5.536 0 01-1.517-.193 4.112 4.112 0 01-1.202-.568l-.007-1.69h1.016l.255.992c.155.142.366.244.631.308.27.064.545.096.824.096.481 0 .856-.096 1.126-.287.275-.196.412-.452.412-.767a.913.913 0 00-.343-.732c-.224-.192-.652-.358-1.284-.5-.902-.196-1.582-.463-2.039-.8-.458-.338-.687-.794-.687-1.37 0-.601.256-1.115.769-1.539.517-.424 1.188-.636 2.012-.636.563 0 1.069.073 1.518.219.448.146.821.349 1.119.609l.068 1.635zM119.199 6.194c0-1.095.297-1.997.892-2.704.595-.711 1.403-1.067 2.424-1.067 1.026 0 1.836.353 2.431 1.06.6.708.9 1.611.9 2.71v.151c0 1.104-.298 2.008-.893 2.71-.595.703-1.403 1.054-2.424 1.054-1.03 0-1.843-.351-2.438-1.054-.595-.707-.892-1.61-.892-2.71v-.15zm1.352.15c0 .785.165 1.433.495 1.944.334.51.828.766 1.483.766.641 0 1.128-.255 1.463-.766.334-.511.501-1.16.501-1.944v-.15c0-.776-.167-1.422-.501-1.937-.335-.516-.827-.774-1.477-.774-.65 0-1.14.258-1.469.774-.33.515-.495 1.16-.495 1.937v.15zM126.821 9.102l1.119-.192V3.62l-1.119-.191v-.87h2.334l.09.965c.238-.35.544-.622.92-.814.375-.192.81-.287 1.305-.287.494 0 .917.114 1.27.342.357.228.625.57.803 1.026a2.76 2.76 0 01.927-.999c.385-.246.833-.37 1.346-.37.76 0 1.36.26 1.799.78.44.516.66 1.294.66 2.335V8.91l1.119.192v.862h-3.598v-.862l1.119-.192V5.523c0-.73-.126-1.246-.378-1.547-.252-.306-.625-.458-1.119-.458-.472 0-.852.166-1.14.5-.284.328-.449.743-.494 1.245V8.91l1.119.192v.862h-3.591v-.862l1.119-.192V5.523c0-.694-.131-1.2-.392-1.52-.256-.323-.629-.485-1.119-.485-.412 0-.751.084-1.016.253a1.634 1.634 0 00-.611.712V8.91l1.119.192v.862h-3.591v-.862zM143.706 10.108c-1.034 0-1.858-.342-2.472-1.026-.609-.69-.913-1.581-.913-2.676v-.301c0-1.054.313-1.93.941-2.628.631-.703 1.378-1.054 2.238-1.054.998 0 1.753.3 2.266.903.517.602.776 1.405.776 2.409v.842h-4.82l-.021.034c.014.712.195 1.298.543 1.759.347.456.835.684 1.462.684.458 0 .858-.064 1.202-.191a2.8 2.8 0 00.899-.541l.529.876c-.265.255-.618.472-1.057.65-.435.173-.959.26-1.573.26zm-.206-6.625c-.453 0-.84.192-1.16.575-.321.379-.518.856-.591 1.43l.014.035h3.426v-.178c0-.53-.142-.972-.425-1.328-.284-.356-.705-.534-1.264-.534z" fill="#999591"/><path fill="#FF9000" d="M0 106.073h230.033v2.002H0zM0 25.983h230.033v2.002H0z"/><path d="M53.28 64.802v14.072a8.243 8.243 0 01-.732 3.42 8.679 8.679 0 01-1.856 2.747 8.554 8.554 0 01-2.813 1.85 7.94 7.94 0 01-3.375.729c-1.2 0-2.325-.224-3.375-.673a9.23 9.23 0 01-2.757-1.794 9.772 9.772 0 01-1.912-2.69 9.162 9.162 0 01-.732-3.365V68.727c-.112-1.159-.637-2-1.575-2.523a3.503 3.503 0 011.575-.393v-13.23a9.162 9.162 0 01.732-3.364 8.775 8.775 0 011.912-2.691 8.713 8.713 0 012.757-1.85 8.5 8.5 0 013.375-.673c1.2 0 2.325.243 3.375.729a8.554 8.554 0 012.813 1.85 8.521 8.521 0 011.856 2.803c.488 1.046.731 2.186.731 3.42 0 .635.057 1.102.17 1.401.15.3.3.542.45.73.15.186.28.354.393.504.15.15.225.392.225.729h-2.925c-.6-.075-.9-.393-.9-.953 0 .56-.3.878-.9.953H46.81c0-.337.056-.58.169-.73.15-.149.3-.317.45-.504.15-.187.281-.43.394-.729.15-.299.225-.785.225-1.457v-.056c0-.486-.019-1.066-.056-1.738a7.141 7.141 0 00-.394-2.019 3.98 3.98 0 00-1.069-1.626c-.488-.448-1.163-.672-2.025-.672-.9 0-1.594.243-2.081.729-.45.448-.788.99-1.013 1.625a7.143 7.143 0 00-.394 2.019c-.037.71-.056 1.308-.056 1.794V65.81c.525 0 1.05.131 1.575.393-.938.523-1.462 1.364-1.575 2.523v10.147c0 .486.019 1.084.056 1.794.038.673.169 1.346.394 2.018a4.273 4.273 0 001.013 1.626c.487.449 1.18.673 2.08.673.9 0 1.576-.224 2.026-.673.487-.448.844-.99 1.069-1.626a7.692 7.692 0 00.394-2.018c.037-.71.056-1.308.056-1.794V67.381a1.69 1.69 0 00-1.069.505 1.561 1.561 0 00-.394 1.065v.056c-.037.56-.187 1.046-.45 1.458-.225.373-.562.71-1.012 1.009-.45.261-1.107.392-1.97.392v-7.064H53.28zm-14.514-1.626c0-.224-.019-.448-.056-.672v-1.907a51.767 51.767 0 01-.056-2.354c0-.748-.02-1.458-.057-2.13a8.196 8.196 0 01-.056-.898c0-.299-.019-.598-.056-.897 0-.261-.019-.504-.056-.728v-.673c0-.187-.02-.355-.057-.505v-.672c-.037 0-.056.018-.056.056v.224c0 .112-.019.243-.056.392v.505c0 .187-.019.411-.056.673v.728a7.202 7.202 0 00-.057.898c0 .261-.018.56-.056.896a38.345 38.345 0 00-.056 2.13c0 .748-.019 1.533-.056 2.355v1.29c0 .187-.02.392-.057.617v6.223a.92.92 0 01.057.28V72.147c.037.373.056.747.056 1.12v1.178c.037.337.056.654.056.953.038.337.056.654.056.953 0 .3.02.58.057.841v.785c.037.224.056.43.056.617v.504c.037.15.056.28.056.393v.28c0 .038.019.056.056.056v-.336-.393c.038-.15.057-.317.057-.504v-.617c.037-.224.056-.486.056-.785.037-.261.056-.542.056-.84 0-.3.019-.617.056-.954v-.953c.038-.374.057-.766.057-1.177v-1.121c.037-.412.056-.823.056-1.234V69.68c0-.3.019-.524.056-.673v-5.83zm12.263 8.13c-.037-.374-.056-.71-.056-1.01 0-.336-.019-.654-.056-.953a11.06 11.06 0 00-.17-1.401.496.496 0 00-.055-.224v-.337l-.057.056v.112a.43.43 0 01-.056.169v.224a11.06 11.06 0 00-.169 1.401 7.668 7.668 0 00-.056.953c0 .3-.019.636-.056 1.01v.56c0 .112-.019.225-.056.337V74.78c0 .113.018.206.056.28v1.346c.037.15.056.318.056.505v.504c.038.15.056.3.056.449.038.15.057.299.057.449 0 .112.018.224.056.336v.336a.92.92 0 01.056.28v.225c.038.075.056.13.056.168v.112c0 .038.02.056.057.056v-.168-.168a.496.496 0 00.056-.224v-.28c.037-.113.056-.225.056-.337.038-.112.056-.224.056-.337 0-.149.02-.299.057-.448v-.448c.037-.15.056-.318.056-.505v-.505c.038-.15.056-.317.056-.504v-.56c0-.15.019-.244.056-.281v-2.635a.497.497 0 00-.056-.224v-.897zM73.715 65.868c.637 0 1.162.13 1.575.392a3.623 3.623 0 00-1.069 1.065 3.974 3.974 0 00-.506 1.458v8.465a8.512 8.512 0 01-.788 3.364 8.869 8.869 0 01-1.856 2.691 9.227 9.227 0 01-2.756 1.794 8.502 8.502 0 01-3.376.673c-1.2 0-2.325-.224-3.375-.673a9.227 9.227 0 01-2.756-1.794 9.773 9.773 0 01-1.913-2.69 9.163 9.163 0 01-.731-3.365v-8.465c-.113-1.159-.638-2-1.575-2.523.413-.262.938-.392 1.575-.392v-10.82a9.039 9.039 0 01.731-3.309 8.773 8.773 0 011.913-2.69 8.71 8.71 0 012.756-1.85 8.501 8.501 0 013.375-.673c1.2 0 2.326.224 3.376.672a8.71 8.71 0 012.756 1.85 8.042 8.042 0 011.856 2.691c.488 1.047.75 2.15.788 3.308v10.82zm-14.513-2.019c0-.187-.02-.355-.057-.504v-1.626a38.356 38.356 0 01-.056-2.019c0-.635-.019-1.233-.056-1.794a5.525 5.525 0 01-.056-.784c0-.262-.02-.505-.057-.73 0-.224-.018-.429-.056-.616v-.505c0-.186-.019-.336-.056-.448V54.207c-.038 0-.056.018-.056.055v.225c0 .074-.02.186-.057.336v.449c0 .149-.018.317-.056.504v.617a4.425 4.425 0 00-.056.729c0 .261-.019.523-.056.785-.038.56-.057 1.158-.057 1.794 0 .635-.018 1.308-.056 2.018v1.065c0 .187-.019.374-.056.56v4.935c0 .26.019.448.056.56v2.635c.038.336.056.654.056.953v.953c.038.262.057.542.057.84.037.3.056.58.056.842 0 .224.019.448.056.673v.616c.038.187.056.374.056.56v.505a.92.92 0 01.057.28v.169c0 .037.018.056.056.056v-.224-.28c.037-.15.056-.318.056-.505v-.56a3.14 3.14 0 00.056-.617c.038-.225.057-.449.057-.673 0-.262.018-.542.056-.841v-.841c.037-.299.056-.617.056-.953v-.953a9.1 9.1 0 00.056-1.01V68.84c.038-.112.057-.3.057-.56v-4.43zm9.281-8.577c0-.486-.018-1.084-.056-1.794a7.14 7.14 0 00-.394-2.019 3.978 3.978 0 00-1.069-1.626c-.45-.486-1.124-.728-2.025-.728-.9 0-1.593.242-2.08.728-.45.449-.788.99-1.014 1.626a7.143 7.143 0 00-.393 2.018c-.038.71-.056 1.309-.056 1.795v10.596c.637 0 1.162.13 1.575.392-.938.523-1.463 1.364-1.575 2.523v8.241c0 .486.018 1.084.056 1.794.037.673.169 1.346.394 2.018a4.274 4.274 0 001.012 1.626c.488.449 1.181.673 2.081.673.9 0 1.576-.224 2.026-.673.487-.448.843-.99 1.068-1.626a7.688 7.688 0 00.394-2.018c.038-.71.056-1.308.056-1.794v-8.241c-.075-1.121-.6-1.962-1.575-2.523.413-.262.938-.392 1.575-.392V55.272zm3.038 8.577v-.504c0-.187-.019-.374-.056-.561v-1.065c0-.71-.019-1.383-.056-2.019 0-.635-.02-1.233-.057-1.794a5.525 5.525 0 01-.056-.784c0-.262-.019-.505-.056-.73 0-.224-.019-.429-.056-.616v-.505c0-.186-.02-.336-.057-.448V54.207c-.037 0-.056.018-.056.055v.561c0 .112-.019.262-.056.449 0 .149-.019.317-.056.504v.617a4.425 4.425 0 00-.057.729c0 .261-.019.523-.056.785-.038.56-.056 1.158-.056 1.794 0 .635-.019 1.308-.056 2.018v2.13c-.038.374-.057.748-.057 1.122v2.242c0 .336.019.691.056 1.065V71.474c.038.336.057.654.057.953v.953c.037.262.056.542.056.84.037.3.056.58.056.842 0 .224.019.448.056.673v.616c.038.187.057.374.057.56.037.188.056.356.056.505V77.865c0 .037.019.056.056.056v-.224-.28c.038-.15.056-.318.056-.505v-.56a3.14 3.14 0 00.057-.617c.037-.225.056-.449.056-.673 0-.262.019-.542.056-.841v-.841c.038-.299.056-.617.056-.953v-.953a9.1 9.1 0 00.057-1.01V69.4v-.28a.92.92 0 00.056-.281v-4.99zM94.59 58.635c0 1.682-.413 3.196-1.238 4.541a8.627 8.627 0 01-3.319 3.14c.675.523 1.294 1.14 1.857 1.85a9.844 9.844 0 011.406 2.243c.413.822.731 1.663.956 2.522.225.86.338 1.701.338 2.523v3.588a9.164 9.164 0 01-.731 3.364 8.87 8.87 0 01-1.857 2.691 9.23 9.23 0 01-2.756 1.794 7.94 7.94 0 01-3.375.729h-5.288a.922.922 0 01-.675-.28 1.041 1.041 0 01-.225-.673.916.916 0 01-.281.673c-.188.187-.394.28-.62.28h-2.98c0-.336.056-.58.168-.729.15-.15.3-.318.45-.504.15-.15.281-.374.394-.673.15-.3.225-.766.225-1.402V68.671c-.112-1.122-.638-1.944-1.575-2.467a2.959 2.959 0 011.575-.449V47.311c0-.636-.075-1.103-.225-1.402-.112-.3-.244-.523-.394-.673-.15-.187-.3-.355-.45-.504-.112-.15-.168-.393-.168-.73h2.98c.226 0 .432.094.62.281.187.15.28.355.28.617 0-.598.3-.897.901-.897h5.288a8.5 8.5 0 013.375.673 8.713 8.713 0 012.756 1.85 8.043 8.043 0 011.857 2.69c.45 1.047.693 2.15.73 3.308v6.111zm-14.513 4.149c0-.262-.02-.505-.057-.729V59.87a71.438 71.438 0 01-.056-2.747c0-.86-.019-1.664-.056-2.411a12.436 12.436 0 01-.056-1.121c0-.337-.02-.655-.057-.954 0-.299-.018-.579-.056-.84v-.73c0-.224-.019-.429-.056-.616v-.785c-.038.038-.056.075-.056.112v.225c0 .112-.02.261-.057.448v.617c0 .187-.018.43-.056.729v.84a7.667 7.667 0 00-.056.954c0 .336-.019.71-.056 1.12a48.276 48.276 0 00-.057 2.412c0 .86-.018 1.775-.056 2.747V62.056c0 .223-.019.466-.056.728v6.391c.037.112.056.243.056.393v3.588c.038.448.056.878.056 1.29v1.233c.038.41.057.822.057 1.233.037.187.056.374.056.56v1.01c.037.15.056.299.056.448v.897c.038.262.056.505.056.73v.616c.038.15.057.28.057.392v.28c0 .038.018.075.056.113v-.393-.392a3.14 3.14 0 00.056-.617v-.729c.038-.299.056-.598.056-.897.038-.15.057-.299.057-.448v-.505-.504c.037-.187.056-.374.056-.561v-1.233c.037-.412.056-.823.056-1.234v-1.29c.038-.485.056-.971.056-1.457v-1.401c0-.337.02-.58.057-.73v-6.783zm11.588 15.137c-.038.112-.056.3-.056.56v1.01c0 .187-.02.355-.057.504v.449c0 .15-.019.28-.056.392v.505c-.037.037-.056.093-.056.168v.28c-.038.038-.056.075-.056.113v.112c0 .037-.02.075-.057.112v.056c0 .037-.019.075-.056.112h.056l.056-.112.057-.112c.037-.038.056-.075.056-.112.038-.038.056-.075.056-.112.038-.038.056-.075.056-.113.038-.037.057-.093.057-.168a.38.38 0 00.112-.28c.075-.15.15-.411.225-.785.075-.224.113-.374.113-.448a.496.496 0 00.056-.225c0-.112.019-.205.056-.28v-.224a.92.92 0 00.056-.28c.038-.113.057-.281.057-.505.037-.187.056-.374.056-.56 0-.188.019-.375.056-.561v-2.355c0-.187-.019-.374-.056-.56 0-.188-.019-.374-.056-.561 0-.225-.019-.393-.056-.505a.496.496 0 00-.057-.224v-.28a.497.497 0 01-.056-.225.622.622 0 00-.056-.28.497.497 0 00-.056-.224v-.225c-.075-.224-.113-.355-.113-.392a3.07 3.07 0 00-.169-.392.38.38 0 00-.112-.28.38.38 0 00-.113-.281l-.169-.337c-.037-.037-.056-.074-.056-.112h-.056l.056.112v.113c.038 0 .056.018.056.056 0 .074.02.15.057.224v.28a.623.623 0 01.056.28c0 .187.019.318.056.393v.392c.038.15.056.3.056.449v1.289c.038.075.057.15.057.225v3.924zm-2.307-2.467c0-.486-.018-1.177-.056-2.074a13.324 13.324 0 00-.394-2.691c-.225-.897-.58-1.663-1.068-2.299-.45-.672-1.126-1.009-2.026-1.009H83.79c-.412 0-.768.15-1.068.449-.3.299-.45.654-.45 1.065V83.47c0 .411.15.767.45 1.066.3.261.656.41 1.068.448h2.025c.9 0 1.576-.224 2.026-.673a4.443 4.443 0 001.068-1.682 7.142 7.142 0 00.394-2.018c.038-.71.056-1.308.056-1.794v-3.364zm0-22.705c0-.486-.018-1.066-.056-1.738a7.143 7.143 0 00-.394-2.019 3.979 3.979 0 00-1.068-1.625c-.45-.486-1.126-.73-2.026-.73H83.79c-.412 0-.768.15-1.068.45-.3.298-.45.653-.45 1.064v15.081c0 .412.15.767.45 1.066.3.299.656.448 1.068.448h2.025c.9 0 1.576-.224 2.026-.672a3.98 3.98 0 001.068-1.626 7.691 7.691 0 00.394-2.019c.038-.71.056-1.308.056-1.794V52.75zm2.532 7.4c.075-.224.112-.374.112-.449a.993.993 0 00.113-.448.496.496 0 00.056-.224c0-.112.019-.206.056-.28v-.225c.038-.112.056-.224.056-.336.038-.112.057-.3.057-.56.037-.188.056-.375.056-.562 0-.186.019-.373.056-.56v-1.233-1.178c0-.41-.019-.803-.056-1.177a.92.92 0 01-.056-.28.622.622 0 00-.056-.28c0-.262-.02-.45-.057-.561a10.918 10.918 0 00-.112-.505c0-.15-.019-.299-.056-.448-.075-.225-.113-.374-.113-.449-.075-.15-.112-.262-.112-.336l-.17-.337a.38.38 0 00-.112-.28 3.07 3.07 0 00-.169-.393l-.112-.112v.112c.037 0 .056.02.056.057.038.037.056.093.056.168 0 .074.02.15.057.224v.28a.779.779 0 01.056.337v.224c.038.037.056.093.056.168v.393c.038.15.056.299.056.448v1.345c.038.075.057.15.057.225v4.148c-.038.113-.056.3-.056.561v1.065c0 .187-.02.355-.057.505v.449c0 .149-.019.298-.056.448v.336c0 .187-.019.3-.056.337v.336c-.038 0-.056.038-.056.112v.112c0 .038-.02.075-.057.112v.056c0 .038-.019.075-.056.113l.112-.112v-.056c.038-.038.057-.075.057-.113.037 0 .056-.037.056-.112.038 0 .056-.037.056-.112.038 0 .056-.037.056-.112.038-.037.057-.093.057-.168a.38.38 0 00.112-.28c.075-.225.113-.356.113-.393zM115.867 82.406c.15.635.319 1.103.506 1.402.188.299.375.542.563.729l.506.504c.15.15.263.393.338.729h-2.982c-.262 0-.506-.093-.731-.28a1.159 1.159 0 01-.338-.673.836.836 0 01-.168.673.694.694 0 01-.563.28h-2.981c-.075-.336-.056-.58.056-.729l.338-.448a2.71 2.71 0 00.281-.73c.075-.336.056-.84-.056-1.513v-.056l-1.238-6.335c-.075-.374-.281-.692-.619-.953-.337-.3-.712-.449-1.125-.449h-3.881c-.413 0-.788.15-1.125.449-.338.261-.544.58-.619.953l-1.181 6.335v.056c-.113.673-.15 1.177-.113 1.514.075.299.169.542.281.729.15.15.263.299.338.448.112.15.15.393.112.729h-2.981a.75.75 0 01-.619-.28.838.838 0 01-.169-.673c-.037.262-.15.486-.337.673a.922.922 0 01-.675.28h-2.981c.037-.336.13-.58.28-.729l.507-.504c.188-.187.375-.43.563-.73.187-.298.356-.766.506-1.4l2.531-13.624a2.714 2.714 0 00-.169-1.458 2.272 2.272 0 00-.9-1.065c.6-.262 1.144-.392 1.632-.392l3.037-15.979c.113-.635.132-1.102.057-1.401-.075-.337-.169-.58-.282-.729a5.917 5.917 0 00-.337-.505c-.113-.149-.131-.392-.056-.728h3.768c.563.074.844.392.844.953 0-.262.075-.468.225-.617.188-.187.394-.299.619-.336h3.825c.075.336.057.579-.056.728-.075.15-.169.318-.281.505-.113.15-.207.392-.282.729-.075.299-.056.766.057 1.401l2.981 15.979c.3 0 .581.037.844.112.262.074.525.168.787.28-.825.523-1.181 1.364-1.068 2.523l2.531 13.623zm-13.501-20.07a1.96 1.96 0 00.113-.617c.037-.224.075-.43.112-.617.188-.86.338-1.663.45-2.41.113-.785.225-1.496.338-2.131.075-.299.112-.598.112-.897l.113-.897c.037-.262.075-.505.112-.729.038-.224.075-.43.113-.617.037-.186.056-.355.056-.504 0-.187.019-.337.056-.449v-.224l-.056.224a5.386 5.386 0 00-.112.393c-.038.15-.075.318-.113.504a2.96 2.96 0 00-.169.673 4.354 4.354 0 01-.168.673l-.225.897a7.645 7.645 0 01-.169.897 52.334 52.334 0 00-.563 2.074c-.15.71-.318 1.495-.506 2.355 0 .224-.019.43-.056.617a5.267 5.267 0 01-.169.616l-.112.673a19.35 19.35 0 00-.113.617c-.112.41-.225.84-.337 1.29l-.225 1.345c-.075.41-.169.84-.282 1.29-.075.448-.15.877-.225 1.289a1.07 1.07 0 00-.056.336.933.933 0 01-.056.28c-.075.3-.113.524-.113.673a6.053 6.053 0 00-.225 1.234l-.225 1.233c-.075.411-.131.785-.168 1.121a32.82 32.82 0 01-.338 2.13 7.542 7.542 0 00-.169.898l-.112.897a5.863 5.863 0 00-.169.784c0 .225-.019.43-.056.617a2.588 2.588 0 00-.056.505c0 .15-.02.28-.057.392 0 .075-.019.131-.056.168v.112c.037 0 .056-.018.056-.056 0-.074.019-.15.056-.224a.779.779 0 00.057-.336c.037-.187.094-.374.169-.56.075-.188.13-.393.168-.618.075-.224.15-.467.225-.728.075-.262.132-.542.169-.841.075-.3.131-.598.169-.897.075-.3.15-.617.225-.953.112-.374.206-.748.281-1.122.075-.373.15-.766.225-1.177l.338-1.233.112-.561c.038-.224.075-.43.113-.617l.168-.672c.038-.113.057-.225.057-.337 0-.112.018-.224.056-.336.075-.411.169-.823.281-1.234.113-.448.206-.897.281-1.345.075-.411.15-.841.225-1.29.075-.448.15-.878.225-1.29l.113-.672c.037-.224.075-.43.112-.616zm4.782 9.586c.412-.037.731-.187.956-.448.263-.3.356-.654.281-1.065l-.337-1.626a3.962 3.962 0 00-.788-1.458 3.755 3.755 0 00-1.237-1.065c.45-.262.937-.392 1.462-.392l-1.8-9.587-1.8 9.587c.488 0 .994.13 1.519.392a4.16 4.16 0 00-1.35 1.065 3.68 3.68 0 00-.675 1.458l-.281 1.626c-.075.41 0 .766.225 1.065.225.261.525.41.9.448h2.925zm5.681 7.85v.167c.038 0 .057.02.057.056v-.224a1.224 1.224 0 01-.057-.392c0-.15-.018-.318-.056-.505a19.611 19.611 0 01-.112-.617c0-.261-.038-.523-.113-.784l-.112-.897a7.645 7.645 0 00-.169-.897c-.113-.561-.225-1.271-.338-2.13a29.6 29.6 0 01-.225-1.122 13.725 13.725 0 00-.168-1.234 5.083 5.083 0 01-.169-.616 1.96 1.96 0 00-.113-.617c0-.15-.037-.374-.112-.673a.63.63 0 00-.056-.28v-.336c-.075-.412-.169-.841-.282-1.29-.075-.448-.15-.878-.225-1.29a16.937 16.937 0 00-.281-1.345 13.164 13.164 0 00-.281-1.29 19.35 19.35 0 00-.113-.616l-.112-.673a5.078 5.078 0 01-.169-.616 19.402 19.402 0 01-.113-.617 56.171 56.171 0 00-.562-2.355 96.251 96.251 0 01-.394-2.074l-.225-.897-.225-.897-.225-.673a2.908 2.908 0 00-.169-.673 10.96 10.96 0 00-.112-.504 5.35 5.35 0 00-.113-.393l-.056-.224v.224c.038.187.094.505.169.953 0 .187.019.393.056.617.038.224.075.467.113.729l.112.897c.038.299.094.598.169.897.112.635.225 1.346.337 2.13.113.748.244 1.551.394 2.411.038.187.056.393.056.617.038.187.094.392.169.617.038.186.075.392.113.616l.112.673c.075.411.15.84.225 1.29.113.448.206.878.281 1.289.075.448.169.897.282 1.345.112.411.206.823.281 1.234.038.112.056.224.056.336 0 .112.019.224.057.337l.168.672c.038.187.075.393.113.617l.112.56c.113.412.207.823.282 1.234.075.411.15.804.225 1.177l.225 1.122c.112.336.206.654.281.953l.225.897c.075.299.15.579.225.84.112.524.225.972.337 1.346.075.187.113.374.113.56.037.15.075.262.112.337zM139.469 88.125c.413.074.694.205.844.392.187.187.319.374.394.56.075.225.112.468.112.73-1.2 0-2.325-.15-3.375-.449a7.767 7.767 0 01-2.813-1.458c-.787-.672-1.425-1.55-1.912-2.635-.45-1.084-.675-2.41-.675-3.98v-7.68c0-.487-.019-1.085-.057-1.795a7.125 7.125 0 00-.393-2.018 3.984 3.984 0 00-1.069-1.626c-.45-.486-1.125-.729-2.025-.729h-2.307c-.337.075-.637.262-.9.56-.225.263-.337.58-.337.954v13.4c0 .672.056 1.176.169 1.513.15.299.3.542.45.729.15.15.281.299.393.448.15.15.225.393.225.729h-2.981c-.225 0-.431-.093-.619-.28-.187-.187-.281-.393-.281-.617 0 .224-.094.43-.281.617a.751.751 0 01-.619.28h-2.925c0-.336.056-.58.168-.729l.451-.448c.15-.187.281-.43.393-.73.15-.298.225-.765.225-1.4v-13.68c-.112-1.159-.637-2-1.575-2.523.413-.262.938-.392 1.575-.392V49.833c0-.635-.075-1.102-.225-1.401-.112-.3-.243-.524-.393-.673a6.139 6.139 0 00-.451-.505c-.112-.149-.168-.392-.168-.728h2.981c.225 0 .431.093.619.28.187.15.281.355.281.617 0-.598.3-.897.9-.897h5.288a8.5 8.5 0 013.375.672 8.719 8.719 0 012.757 1.85 8.048 8.048 0 011.856 2.691c.45 1.047.694 2.15.731 3.308v3.644c0 1.57-.375 3.01-1.125 4.317a8.715 8.715 0 01-3.038 3.14c1.276.747 2.288 1.794 3.038 3.14.75 1.308 1.125 2.746 1.125 4.316v9.867c.038.785.131 1.514.281 2.187.15.635.375 1.177.675 1.626.3.448.713.728 1.238.84zm-5.119-30.387a.616.616 0 00-.056.28v1.29c-.038.15-.057.3-.057.449v.336c0 .075-.018.13-.056.168v.505a.63.63 0 00-.056.28c0 .075-.019.15-.056.224 0 .075-.019.131-.057.168v.113l-.056.112.113-.056v-.056l.056-.056.056-.056c0-.038.019-.075.056-.113l.113-.224a2.03 2.03 0 01.113-.28l.056-.112a.42.42 0 01.056-.169.42.42 0 00.056-.168c0-.075.019-.15.057-.224a.436.436 0 00.056-.168c0-.038.019-.094.056-.168v-.169a.49.49 0 00.056-.224c.038-.15.057-.299.057-.448l.112-.449a1.68 1.68 0 00.056-.504v-.225a.491.491 0 00.057-.224v-1.962c0-.224-.019-.392-.057-.505v-.224c0-.075-.018-.112-.056-.112v-.168c0-.187-.037-.467-.112-.841a.49.49 0 01-.057-.224.49.49 0 00-.056-.225c0-.037-.019-.056-.056-.056v-.112c0-.037-.019-.056-.056-.056v-.112a.425.425 0 01-.057-.168.42.42 0 00-.056-.169.42.42 0 01-.056-.168.436.436 0 00-.056-.168c-.038-.037-.057-.075-.057-.112 0-.037-.019-.075-.056-.112l-.113-.224a6.678 6.678 0 00-.056-.056c0-.038-.019-.075-.056-.112-.038-.038-.056-.075-.056-.113-.038-.037-.057-.074-.057-.112h-.056l.056.112v.113c.038.037.057.112.057.224v.112c.037 0 .056.037.056.112a.63.63 0 00.056.28V52.861c.038.037.056.093.056.168 0 .336.019.598.057.785v.897c.037.187.056.486.056.897v2.13zm-11.588 5.775c0-.187-.019-.393-.056-.617V60.99a51.092 51.092 0 01-.057-2.355c0-.747-.018-1.457-.056-2.13a7.298 7.298 0 01-.056-.897c0-.3-.019-.58-.056-.841 0-.3-.019-.56-.057-.785v-.617c0-.187-.018-.355-.056-.504v-.673c-.037 0-.056.019-.056.056v.224c0 .112-.019.243-.056.393v.504c0 .187-.019.393-.057.617v.785a6.012 6.012 0 00-.056.84c0 .3-.019.599-.056.898a37.877 37.877 0 00-.056 2.13c0 .748-.019 1.533-.057 2.355v1.233c0 .225-.018.449-.056.673v5.831c0 .299.019.523.056.672v3.084c.038.374.057.748.057 1.121v1.121c.037.337.056.673.056 1.01.037.336.056.654.056.953 0 .261.019.542.056.84v.73c.038.224.057.43.057.616v.56c.037.15.056.262.056.337v.28c0 .038.019.057.056.057v-.337-.336c.038-.187.056-.374.056-.56v-.618a4.37 4.37 0 00.057-.728c.037-.3.056-.58.056-.841 0-.3.019-.617.056-.953v-1.01c.038-.336.056-.71.056-1.12v-1.122c.038-.411.057-.822.057-1.233v-1.234c0-.299.018-.504.056-.617v-5.886zm9.282-8.241c0-.486-.019-1.084-.057-1.794a7.125 7.125 0 00-.393-2.019 3.984 3.984 0 00-1.069-1.626c-.45-.486-1.125-.728-2.025-.728h-2.025a1.688 1.688 0 00-1.069.504c-.3.3-.45.654-.45 1.065V63.29c0 .41.15.766.45 1.065.3.299.656.448 1.069.448h2.025c.9 0 1.575-.224 2.025-.673.487-.448.844-.99 1.069-1.625a7.67 7.67 0 00.393-2.019c.038-.71.057-1.308.057-1.794v-3.42zm3.769 30.722l-.057-.056-.056-.056-.112-.224c0-.075-.038-.15-.113-.224l-.112-.337c-.038-.15-.075-.317-.113-.504a5.418 5.418 0 01-.112-1.066 2.807 2.807 0 01-.057-.56v-3.7-.785c0-.262.019-.542.057-.841v-.785c0-.262-.019-.523-.057-.785v-.785c0-.374-.018-.635-.056-.785 0-.261-.019-.504-.056-.729 0-.261-.019-.504-.056-.728a24.98 24.98 0 00-.225-1.346 10.877 10.877 0 00-.113-.504 3.23 3.23 0 00-.169-.561 9.128 9.128 0 01-.169-.449 1.39 1.39 0 00-.168-.336 2.674 2.674 0 01-.169-.28l-.113-.225c-.037 0-.075-.018-.112-.056-.038 0-.056-.018-.056-.056l.056.056c0 .038.019.075.056.112v.113c.038 0 .056.037.056.112.038.037.057.075.057.112a.42.42 0 00.056.168c.037.15.094.411.169.785.037.187.056.374.056.56l.112.561v.617c.038.187.057.411.057.673v7.344c.037.112.056.243.056.392v.785l.113.673c.037.224.056.449.056.673.037.224.075.43.112.617.075.224.132.43.169.616.038.15.094.318.169.505.075.187.131.336.169.448.037.112.093.224.168.337l.113.112c.037.037.056.075.056.112l.056.056.225.224h.057z" fill="#F4EDE8"/><path d="M156.336 58.691c0 1.57-.375 3.01-1.125 4.317a8.723 8.723 0 01-3.038 3.14c1.275.747 2.288 1.794 3.038 3.14.75 1.308 1.125 2.746 1.125 4.316v3.644a9.153 9.153 0 01-.731 3.364 8.862 8.862 0 01-1.857 2.691 9.22 9.22 0 01-2.756 1.794 8.5 8.5 0 01-3.375.673h-5.344c-.225 0-.431-.093-.619-.28-.187-.187-.281-.393-.281-.617 0 .224-.094.43-.281.617a.751.751 0 01-.619.28h-2.925c0-.336.056-.58.168-.729l.45-.448c.15-.187.282-.43.394-.73.15-.298.225-.765.225-1.4v-13.68c-.112-1.159-.637-2-1.575-2.523.413-.262.938-.392 1.575-.392V49.833c0-.635-.075-1.102-.225-1.401-.112-.3-.244-.524-.394-.673-.15-.187-.3-.355-.45-.505-.112-.149-.168-.392-.168-.728h2.981c.225 0 .431.093.619.28.187.15.281.355.281.617 0-.598.3-.897.9-.897h5.288a8.5 8.5 0 013.375.672 8.703 8.703 0 012.756 1.85 8.036 8.036 0 011.857 2.691c.45 1.047.694 2.15.731 3.308v3.644zm-14.513 4.822c0-.187-.019-.393-.056-.617V60.99a51.092 51.092 0 01-.057-2.355c0-.747-.018-1.457-.056-2.13a7.298 7.298 0 01-.056-.897c0-.3-.019-.58-.056-.841 0-.3-.019-.56-.057-.785v-.617c0-.187-.018-.355-.056-.504v-.673c-.037 0-.056.019-.056.056v.224c0 .112-.019.243-.056.393v.504c0 .187-.019.393-.057.617v.785a6.012 6.012 0 00-.056.84c0 .3-.019.599-.056.898a37.877 37.877 0 00-.056 2.13c0 .748-.019 1.533-.057 2.355v1.233c0 .225-.018.449-.056.673v5.831c0 .299.019.523.056.672v3.084c.038.374.057.748.057 1.121v1.121c.037.337.056.673.056 1.01.037.336.056.654.056.953 0 .261.019.542.056.84v.73c.038.224.057.43.057.616v.56c.037.15.056.262.056.337v.28c0 .038.019.057.056.057v-.337-.336c.038-.187.056-.374.056-.56v-.618a4.37 4.37 0 00.057-.728c.037-.3.056-.58.056-.841 0-.3.019-.617.056-.953v-1.01c.038-.336.056-.71.056-1.12v-1.122c.038-.411.057-.822.057-1.233v-1.234c0-.299.018-.504.056-.617v-5.886zm11.588 13.006a.616.616 0 00-.056.28v1.29c-.038.15-.057.3-.057.449v.336c0 .075-.018.131-.056.168v.505a.63.63 0 00-.056.28c0 .075-.019.15-.056.225 0 .074-.019.13-.057.168v.112l-.056.112.113-.056v-.056l.056-.056.056-.056c0-.038.019-.075.056-.112l.113-.225a2.175 2.175 0 01.169-.392.42.42 0 01.056-.168.437.437 0 00.056-.168c0-.038.019-.094.056-.169a.425.425 0 00.057-.168.49.49 0 01.056-.224v-.168a.503.503 0 00.056-.225c.038-.15.056-.299.056-.448l.113-.449c.037-.112.056-.28.056-.504v-.224a.49.49 0 00.056-.225V74.39c0-.224-.018-.392-.056-.504v-.225c0-.075-.019-.112-.056-.112v-.112a1.47 1.47 0 00-.056-.449c0-.149-.019-.298-.057-.448a.502.502 0 01-.056-.224.503.503 0 00-.056-.224c0-.038-.019-.057-.056-.057v-.112c0-.037-.019-.056-.057-.056v-.112a.436.436 0 01-.056-.168.437.437 0 00-.056-.168.42.42 0 01-.056-.168.425.425 0 00-.057-.169c-.037-.037-.056-.074-.056-.112 0-.037-.019-.075-.056-.112l-.113-.224a6.678 6.678 0 00-.056-.056c0-.038-.019-.075-.056-.112-.038-.038-.056-.075-.056-.112l-.113-.113.056.113v.112c.038.037.057.112.057.224v.112c.037 0 .056.037.056.112a.63.63 0 00.056.28V71.642c.038.037.056.093.056.168 0 .337.019.598.057.785v.897c.037.187.056.486.056.897v2.13zm-2.306-2.915c0-.486-.019-1.084-.057-1.794a7.09 7.09 0 00-.394-2.018 3.982 3.982 0 00-1.068-1.626c-.45-.486-1.125-.729-2.025-.729h-2.026a1.688 1.688 0 00-1.068.505c-.3.299-.45.654-.45 1.065v12.614c0 .411.15.767.45 1.066.3.299.656.448 1.068.448h2.026c.9 0 1.575-.224 2.025-.673.487-.448.843-.99 1.068-1.626a7.632 7.632 0 00.394-2.018c.038-.71.057-1.308.057-1.794v-3.42zm0-18.332c0-.486-.019-1.084-.057-1.794a7.09 7.09 0 00-.394-2.019 3.982 3.982 0 00-1.068-1.626c-.45-.486-1.125-.728-2.025-.728h-2.026a1.688 1.688 0 00-1.068.504c-.3.3-.45.654-.45 1.065V63.29c0 .41.15.766.45 1.065.3.299.656.448 1.068.448h2.026c.9 0 1.575-.224 2.025-.673.487-.448.843-.99 1.068-1.625a7.632 7.632 0 00.394-2.019c.038-.71.057-1.308.057-1.794v-3.42zm2.418 5.55l.057-.112a.42.42 0 01.056-.169.437.437 0 00.056-.168c0-.075.019-.15.056-.224a.425.425 0 00.057-.168.42.42 0 01.056-.168v-.169a.503.503 0 00.056-.224c.038-.15.056-.299.056-.448l.113-.449c.037-.112.056-.28.056-.504v-.225a.49.49 0 00.056-.224v-1.962a1.68 1.68 0 00-.056-.505v-.224c0-.075-.019-.112-.056-.112v-.168c0-.187-.038-.467-.113-.841a.502.502 0 01-.056-.224.503.503 0 00-.056-.225c0-.037-.019-.056-.056-.056v-.112c0-.037-.019-.056-.057-.056v-.112a.436.436 0 01-.056-.168.437.437 0 00-.056-.169.42.42 0 01-.056-.168.425.425 0 00-.057-.168c-.037-.037-.056-.075-.056-.112 0-.037-.019-.075-.056-.112l-.113-.224a6.678 6.678 0 00-.056-.056c0-.038-.019-.075-.056-.112-.038-.038-.056-.075-.056-.113-.038-.037-.057-.074-.057-.112h-.056l.056.112v.113c.038.037.057.112.057.224v.112c.037 0 .056.037.056.112a.63.63 0 00.056.28V52.861c.038.037.056.093.056.168 0 .336.019.598.057.785v.897c.037.187.056.486.056.897v2.13a.616.616 0 00-.056.28v1.29c-.038.15-.057.3-.057.449v.336c0 .075-.018.13-.056.168v.505a.63.63 0 00-.056.28c0 .075-.019.15-.056.224 0 .075-.019.131-.057.168v.113l-.056.112.113-.056v-.056l.056-.056.056-.056c0-.038.019-.075.056-.113l.113-.224c.037-.112.075-.205.112-.28zM175.509 82.35c0 .673.057 1.177.169 1.514.15.299.3.542.45.729.15.15.281.299.394.448.15.15.225.393.225.729h-15.301c-.225 0-.431-.093-.619-.28-.187-.187-.281-.393-.281-.617 0 .224-.094.43-.281.617a.75.75 0 01-.619.28h-2.925c0-.336.056-.58.169-.729l.45-.448c.15-.187.281-.43.394-.73.15-.298.225-.765.225-1.4v-13.68c-.113-1.159-.638-2-1.576-2.523.413-.262.938-.392 1.576-.392V49.833c0-.635-.075-1.102-.225-1.401-.113-.3-.244-.524-.394-.673-.15-.187-.3-.355-.45-.505-.113-.149-.169-.392-.169-.728h2.981c.225 0 .432.093.619.28.188.15.281.355.281.617 0-.598.3-.897.9-.897h15.245c0 .336-.075.579-.225.728-.113.15-.244.318-.394.505-.15.15-.3.392-.45.729-.112.299-.169.785-.169 1.458v7.456c-1.312 0-2.325-.243-3.037-.729-.675-.523-1.182-1.102-1.519-1.738-.413-.71-.638-1.55-.675-2.523v-1.738c0-.41-.15-.766-.45-1.065a1.688 1.688 0 00-1.069-.504h-4.05a1.688 1.688 0 00-1.069.504c-.3.3-.45.654-.45 1.065V63.29c0 .41.15.766.45 1.065.3.299.656.448 1.069.448h.394c.412 0 .75-.15 1.012-.448.3-.3.45-.654.45-1.065v-.056c.038-.561.188-1.047.45-1.458.225-.374.563-.71 1.013-1.01.45-.298 1.106-.448 1.969-.448v11.605c-.863 0-1.519-.15-1.969-.448-.45-.3-.788-.636-1.013-1.01-.262-.41-.412-.896-.45-1.457 0-.411-.15-.766-.45-1.065a1.472 1.472 0 00-1.012-.505h-.394a1.688 1.688 0 00-1.069.505c-.3.299-.45.654-.45 1.065v12.614c0 .411.15.767.45 1.066.3.299.656.448 1.069.448h4.05c.413 0 .769-.15 1.069-.449.3-.299.45-.654.45-1.065v-1.794c.037-.934.262-1.756.675-2.466.337-.636.844-1.215 1.519-1.739.712-.523 1.725-.784 3.037-.784v7.512zm-14.513-18.837c0-.187-.019-.393-.056-.617V60.99a51.046 51.046 0 01-.056-2.355c0-.747-.019-1.457-.057-2.13a7.298 7.298 0 01-.056-.897c0-.3-.019-.58-.056-.841 0-.3-.019-.56-.056-.785v-.617c0-.187-.019-.355-.057-.504v-.673c-.037 0-.056.019-.056.056v.224c0 .112-.019.243-.056.393v.504c0 .187-.019.393-.056.617v.785a5.86 5.86 0 00-.057.84c0 .3-.018.599-.056.898a38.85 38.85 0 00-.056 2.13c0 .748-.019 1.533-.056 2.355v1.233c0 .225-.019.449-.057.673v5.831c0 .299.019.523.057.672v3.084c.037.374.056.748.056 1.121v1.121c.037.337.056.673.056 1.01a8.5 8.5 0 01.056.953c0 .261.019.542.057.84v.73c.037.224.056.43.056.616v.56c.037.15.056.262.056.337v.28c0 .038.019.057.056.057v-.337-.336c.038-.187.057-.374.057-.56v-.618c.037-.224.056-.467.056-.728.037-.3.056-.58.056-.841 0-.3.019-.617.056-.953v-1.01c.038-.336.057-.71.057-1.12v-1.122c.037-.411.056-.822.056-1.233v-1.234c0-.299.019-.504.056-.617v-5.886zM198.139 88.125c.412.074.694.205.844.392.187.187.318.374.393.56.075.225.113.468.113.73-1.2 0-2.325-.15-3.375-.449a7.767 7.767 0 01-2.813-1.458c-.787-.672-1.425-1.55-1.913-2.635-.45-1.084-.675-2.41-.675-3.98v-7.68c0-.487-.018-1.085-.056-1.795a7.125 7.125 0 00-.394-2.018 3.982 3.982 0 00-1.068-1.626c-.45-.486-1.125-.729-2.025-.729h-2.307c-.337.075-.637.262-.9.56-.225.263-.337.58-.337.954v13.4c0 .672.056 1.176.168 1.513.15.299.3.542.45.729.15.15.282.299.394.448.15.15.225.393.225.729h-2.981c-.225 0-.432-.093-.619-.28-.188-.187-.281-.393-.281-.617 0 .224-.094.43-.282.617a.75.75 0 01-.618.28h-2.925c0-.336.056-.58.168-.729l.45-.448c.15-.187.282-.43.394-.73.15-.298.225-.765.225-1.4v-13.68c-.112-1.159-.637-2-1.575-2.523.413-.262.938-.392 1.575-.392V49.833c0-.635-.075-1.102-.225-1.401-.112-.3-.244-.524-.394-.673-.15-.187-.3-.355-.45-.505-.112-.149-.168-.392-.168-.728h2.981c.225 0 .431.093.619.28.187.15.281.355.281.617 0-.598.3-.897.9-.897h5.288a8.5 8.5 0 013.375.672 8.703 8.703 0 012.756 1.85 8.036 8.036 0 011.857 2.691c.45 1.047.693 2.15.731 3.308v3.644c0 1.57-.375 3.01-1.125 4.317a8.723 8.723 0 01-3.038 3.14c1.275.747 2.288 1.794 3.038 3.14.75 1.308 1.125 2.746 1.125 4.316v9.867c.037.785.131 1.514.281 2.187.15.635.375 1.177.675 1.626.3.448.713.728 1.238.84zm-5.119-30.387a.616.616 0 00-.056.28v1.29c-.038.15-.057.3-.057.449v.336c0 .075-.018.13-.056.168v.505a.63.63 0 00-.056.28c0 .075-.019.15-.056.224 0 .075-.019.131-.057.168v.113l-.056.112.113-.056v-.056l.056-.056.056-.056c0-.038.019-.075.056-.113l.113-.224a2.175 2.175 0 01.169-.392.42.42 0 01.056-.169.437.437 0 00.056-.168c0-.075.019-.15.056-.224a.425.425 0 00.057-.168.42.42 0 01.056-.168v-.169a.503.503 0 00.056-.224c.038-.15.056-.299.056-.448l.113-.449c.037-.112.056-.28.056-.504v-.225a.49.49 0 00.056-.224v-1.962a1.68 1.68 0 00-.056-.505v-.224c0-.075-.019-.112-.056-.112v-.168c0-.187-.038-.467-.113-.841a.502.502 0 01-.056-.224.503.503 0 00-.056-.225c0-.037-.019-.056-.056-.056v-.112c0-.037-.019-.056-.057-.056v-.112a.436.436 0 01-.056-.168.437.437 0 00-.056-.169.42.42 0 01-.056-.168.425.425 0 00-.057-.168c-.037-.037-.056-.075-.056-.112 0-.037-.019-.075-.056-.112l-.113-.224a6.678 6.678 0 00-.056-.056c0-.038-.019-.075-.056-.112-.038-.038-.056-.075-.056-.113-.038-.037-.057-.074-.057-.112h-.056l.056.112v.113c.038.037.057.112.057.224v.112c.037 0 .056.037.056.112a.63.63 0 00.056.28V52.861c.038.037.056.093.056.168 0 .336.019.598.057.785v.897c.037.187.056.486.056.897v2.13zm-11.588 5.775c0-.187-.019-.393-.057-.617V60.99a52.495 52.495 0 01-.056-2.355c0-.747-.019-1.457-.056-2.13a7.106 7.106 0 01-.056-.897c0-.3-.019-.58-.057-.841 0-.3-.018-.56-.056-.785v-.617c0-.187-.019-.355-.056-.504v-.673c-.038 0-.056.019-.056.056v.224c0 .112-.019.243-.057.393v.504c0 .187-.018.393-.056.617v.785a6.012 6.012 0 00-.056.84c0 .3-.019.599-.056.898a37.846 37.846 0 00-.057 2.13c0 .748-.018 1.533-.056 2.355v1.233c0 .225-.019.449-.056.673v5.831c0 .299.019.523.056.672v3.084c.038.374.056.748.056 1.121v1.121c.038.337.057.673.057 1.01.037.336.056.654.056.953 0 .261.019.542.056.84v.73c.038.224.056.43.056.616v.56c.038.15.057.262.057.337v.28c0 .038.018.057.056.057v-.337-.336c.037-.187.056-.374.056-.56v-.618c.038-.224.056-.467.056-.728a6.69 6.69 0 00.057-.841 8.5 8.5 0 01.056-.953v-1.01c.037-.336.056-.71.056-1.12v-1.122c.038-.411.056-.822.056-1.233v-1.234c0-.299.019-.504.057-.617v-5.886zm9.281-8.241c0-.486-.018-1.084-.056-1.794a7.125 7.125 0 00-.394-2.019 3.982 3.982 0 00-1.068-1.626c-.45-.486-1.125-.728-2.025-.728h-2.026a1.688 1.688 0 00-1.068.504c-.3.3-.45.654-.45 1.065V63.29c0 .41.15.766.45 1.065.3.299.656.448 1.068.448h2.026c.9 0 1.575-.224 2.025-.673.487-.448.843-.99 1.068-1.625a7.673 7.673 0 00.394-2.019c.038-.71.056-1.308.056-1.794v-3.42zm3.769 30.722l-.056-.056-.056-.056-.113-.224c0-.075-.037-.15-.112-.224l-.113-.337a10.96 10.96 0 01-.112-.504 5.422 5.422 0 01-.113-1.066 2.88 2.88 0 01-.056-.56v-3.7-.785c0-.262.019-.542.056-.841v-.785c0-.262-.018-.523-.056-.785v-.785c0-.374-.019-.635-.056-.785 0-.261-.019-.504-.056-.729 0-.261-.019-.504-.057-.728a24.98 24.98 0 00-.225-1.346 10.96 10.96 0 00-.112-.504 3.23 3.23 0 00-.169-.561 9.128 9.128 0 01-.169-.449 1.39 1.39 0 00-.168-.336 2.674 2.674 0 01-.169-.28l-.113-.225c-.037 0-.075-.018-.112-.056-.038 0-.056-.018-.056-.056l.056.056c0 .038.019.075.056.112v.113c.038 0 .056.037.056.112.038.037.057.075.057.112a.42.42 0 00.056.168c.037.15.094.411.169.785.037.187.056.374.056.56l.112.561v.617c.038.187.057.411.057.673v7.344c.037.112.056.243.056.392v.785l.112.673c.038.224.057.449.057.673.037.224.075.43.112.617.075.224.131.43.169.616.037.15.094.318.169.505.075.187.131.336.168.448.038.112.094.224.169.337l.113.112c.037.037.056.075.056.112l.056.056.225.224h.056z" fill="#F4EDE8"/><ellipse rx="3.014" ry="3.003" transform="matrix(1 0 0 -1 210.947 67.029)" fill="#999591"/><ellipse rx="3.014" ry="3.003" transform="matrix(1 0 0 -1 19.086 67.029)" fill="#999591"/></svg>