<svg width="231" height="134" viewBox="0 0 231 134" fill="none" xmlns="http://www.w3.org/2000/svg">
<g clip-path="url(#clip0)">
<path d="M55.029 124.761V123.892H58.619V124.761L57.501 124.953V128.395H62.349V124.953L61.229 124.761V123.892H64.82V124.761L63.701 124.953V132.802L64.821 132.994V133.856H61.229V132.994L62.349 132.802V129.456H57.5V132.802L58.619 132.994V133.856H55.028V132.994L56.147 132.802V124.953L55.027 124.761H55.029ZM70.808 133.856C70.7706 133.677 70.7386 133.497 70.712 133.316C70.6892 133.157 70.6732 132.997 70.664 132.837C70.404 133.17 70.076 133.448 69.682 133.671C69.293 133.89 68.876 134 68.432 134C67.659 134 67.07 133.813 66.668 133.439C66.265 133.06 66.063 132.529 66.063 131.844C66.063 131.142 66.347 130.601 66.915 130.222C67.487 129.839 68.27 129.647 69.263 129.647H70.657V128.785C70.657 128.352 70.52 128.009 70.245 127.759C69.971 127.503 69.588 127.375 69.098 127.375C68.7933 127.37 68.4898 127.414 68.199 127.505C67.9676 127.578 67.7545 127.699 67.574 127.861L67.43 128.641H66.386V127.204C66.7551 126.919 67.1714 126.702 67.616 126.561C68.1205 126.393 68.6493 126.31 69.181 126.315C70.023 126.315 70.705 126.529 71.227 126.958C71.749 127.387 72.01 128 72.01 128.799V132.645C72.015 132.736 72.021 132.827 72.03 132.919L72.58 132.994V133.856H70.808V133.856ZM68.632 132.871C69.08 132.871 69.49 132.764 69.861 132.549C70.231 132.335 70.497 132.077 70.657 131.776V130.558H69.215C68.661 130.558 68.222 130.685 67.897 130.941C67.577 131.196 67.417 131.507 67.417 131.872C67.417 132.196 67.517 132.444 67.718 132.618C67.92 132.786 68.224 132.871 68.632 132.871V132.871ZM73.706 132.994L74.826 132.802V127.512L73.706 127.321V126.451H76.178V132.802L77.298 132.994V133.856H73.706V132.994ZM76.178 124.556H74.825V123.18H76.178V124.556ZM78.334 127.321V126.451H80.662L80.792 127.526C81.003 127.147 81.262 126.851 81.569 126.636C81.8819 126.422 82.2536 126.309 82.633 126.315C82.738 126.315 82.846 126.324 82.956 126.342C83.07 126.356 83.157 126.372 83.216 126.39L83.038 127.642L82.269 127.601C81.912 127.601 81.612 127.686 81.369 127.854C81.127 128.019 80.939 128.251 80.806 128.552V132.802L81.926 132.994V133.856H78.334V132.994L79.454 132.802V127.512L78.334 127.321V127.321ZM87.357 132.946C87.806 132.946 88.2 132.809 88.538 132.535C88.882 132.257 89.053 131.917 89.053 131.516H90.269L90.282 131.557C90.305 132.196 90.019 132.764 89.424 133.261C88.834 133.754 88.144 134 87.357 134C86.277 134 85.451 133.649 84.878 132.946C84.311 132.243 84.027 131.361 84.027 130.298V130.01C84.027 128.956 84.313 128.078 84.885 127.375C85.457 126.668 86.281 126.315 87.357 126.315C87.952 126.315 88.486 126.413 88.957 126.609C89.433 126.805 89.827 127.074 90.138 127.416L90.2 129.059H89.122L88.827 127.895C88.6486 127.729 88.4384 127.601 88.209 127.519C87.9362 127.419 87.6474 127.371 87.357 127.375C86.647 127.375 86.14 127.631 85.833 128.142C85.531 128.648 85.38 129.271 85.38 130.01V130.298C85.38 131.055 85.53 131.687 85.833 132.193C86.135 132.695 86.643 132.946 87.357 132.946V132.946ZM96.916 132.761C96.6994 133.141 96.3866 133.457 96.009 133.678C95.643 133.893 95.219 134 94.739 134C93.933 134 93.304 133.742 92.851 133.227C92.397 132.711 92.171 131.908 92.171 130.818V127.512L91.319 127.321V126.451H93.524V130.831C93.524 131.621 93.64 132.164 93.874 132.46C94.107 132.757 94.471 132.905 94.966 132.905C95.446 132.905 95.842 132.809 96.154 132.618C96.47 132.421 96.708 132.145 96.868 131.789V127.512L95.872 127.321V126.451H98.221V132.802L99.072 132.994V133.856H97.005L96.915 132.761H96.916ZM102.505 124.665V126.451H103.913V127.451H102.505V131.947C102.505 132.294 102.576 132.538 102.718 132.679C102.865 132.821 103.057 132.891 103.295 132.891C103.414 132.891 103.547 132.882 103.693 132.864C103.844 132.841 103.97 132.818 104.071 132.795L104.256 133.719C104.128 133.802 103.941 133.868 103.693 133.918C103.45 133.972 103.201 134 102.952 134C102.402 134 101.965 133.836 101.64 133.507C101.315 133.174 101.153 132.654 101.153 131.947V127.451H99.978V126.451H101.153V124.665H102.505V124.665ZM110.979 128.778H109.963L109.743 127.889C109.562 127.724 109.35 127.598 109.118 127.519C108.848 127.419 108.562 127.37 108.274 127.375C107.793 127.375 107.436 127.48 107.202 127.69C107.092 127.783 107.003 127.9 106.942 128.031C106.882 128.162 106.851 128.305 106.852 128.45C106.852 128.742 106.955 128.972 107.161 129.141C107.367 129.31 107.786 129.46 108.418 129.593C109.356 129.793 110.054 130.067 110.512 130.414C110.97 130.756 111.199 131.217 111.199 131.796C111.199 132.453 110.931 132.985 110.395 133.391C109.864 133.797 109.168 134 108.308 134C107.796 134.007 107.285 133.942 106.79 133.808C106.361 133.686 105.956 133.494 105.589 133.24L105.582 131.55H106.598L106.852 132.542C107.008 132.684 107.218 132.786 107.484 132.85C107.754 132.914 108.029 132.946 108.308 132.946C108.789 132.946 109.164 132.85 109.434 132.659C109.709 132.462 109.846 132.207 109.846 131.892C109.849 131.752 109.819 131.613 109.76 131.486C109.701 131.359 109.613 131.247 109.503 131.16C109.278 130.968 108.85 130.802 108.219 130.66C107.317 130.464 106.637 130.197 106.179 129.86C105.721 129.522 105.492 129.066 105.492 128.491C105.492 127.889 105.749 127.375 106.262 126.951C106.779 126.527 107.45 126.315 108.274 126.315C108.788 126.308 109.3 126.382 109.791 126.534C110.24 126.68 110.613 126.883 110.91 127.143L110.979 128.778V128.778ZM115.861 131.174C115.861 130.617 116.022 130.131 116.342 129.716C116.667 129.296 117.15 128.876 117.791 128.457C117.434 128.005 117.168 127.603 116.994 127.252C116.824 126.912 116.734 126.537 116.733 126.157C116.733 125.386 116.955 124.793 117.399 124.378C117.848 123.958 118.464 123.748 119.247 123.748C119.97 123.748 120.558 123.956 121.011 124.371C121.465 124.786 121.691 125.286 121.691 125.87C121.701 126.287 121.573 126.696 121.327 127.033C121.089 127.357 120.734 127.69 120.263 128.032L119.514 128.58L121.849 131.379C122.037 131.082 122.183 130.754 122.289 130.393C122.394 130.033 122.447 129.652 122.447 129.25H123.655C123.655 129.848 123.566 130.402 123.387 130.913C123.209 131.424 122.95 131.883 122.611 132.289L123.882 133.822L123.868 133.856H122.295L121.712 133.158C121.344 133.433 120.933 133.646 120.496 133.788C120.05 133.93 119.584 134.001 119.116 134C118.123 134 117.331 133.738 116.74 133.213C116.154 132.688 115.861 132.008 115.861 131.174V131.174ZM119.116 132.946C119.446 132.946 119.771 132.891 120.091 132.782C120.412 132.668 120.714 132.506 120.998 132.296L118.519 129.319L118.244 129.517C117.828 129.828 117.551 130.124 117.413 130.407C117.28 130.69 117.214 130.945 117.214 131.174C117.214 131.689 117.377 132.113 117.702 132.446C118.027 132.78 118.498 132.946 119.116 132.946V132.946ZM118.086 126.143C118.086 126.385 118.148 126.638 118.272 126.903C118.395 127.163 118.581 127.448 118.828 127.759L119.775 127.108C120.036 126.935 120.213 126.748 120.304 126.547C120.4 126.342 120.448 126.116 120.448 125.87C120.448 125.591 120.336 125.345 120.112 125.131C119.892 124.916 119.604 124.809 119.247 124.809C118.876 124.809 118.59 124.939 118.388 125.199C118.187 125.455 118.086 125.769 118.086 126.143V126.143ZM135.439 126.835H134.415L134.161 125.411C133.955 125.238 133.681 125.094 133.337 124.98C132.95 124.86 132.547 124.802 132.142 124.809C131.424 124.809 130.872 124.962 130.488 125.267C130.304 125.404 130.156 125.583 130.055 125.789C129.955 125.995 129.905 126.222 129.911 126.451C129.911 126.885 130.105 127.248 130.494 127.54C130.888 127.827 131.522 128.08 132.397 128.299C133.449 128.559 134.248 128.943 134.793 129.449C135.342 129.955 135.617 130.583 135.617 131.331C135.617 132.134 135.287 132.78 134.628 133.268C133.974 133.756 133.115 134 132.053 134C131.284 134 130.6 133.875 130 133.624C129.405 133.373 128.92 133.044 128.544 132.638V130.783H129.561L129.821 132.214C130.082 132.428 130.394 132.604 130.755 132.741C131.117 132.878 131.55 132.946 132.053 132.946C132.735 132.946 133.273 132.802 133.667 132.515C133.857 132.386 134.011 132.211 134.115 132.006C134.219 131.802 134.27 131.574 134.264 131.345C134.264 130.888 134.093 130.507 133.749 130.202C133.406 129.891 132.799 129.631 131.93 129.422C130.872 129.171 130.046 128.801 129.451 128.313C128.856 127.825 128.558 127.211 128.558 126.472C128.558 125.692 128.89 125.044 129.554 124.528C130.217 124.008 131.08 123.748 132.142 123.748C132.843 123.748 133.479 123.869 134.051 124.111C134.628 124.348 135.091 124.638 135.439 124.98V126.835V126.835ZM136.709 132.994L137.828 132.802V124.241L136.709 124.049V123.18H139.181V127.437C139.437 127.081 139.751 126.805 140.122 126.609C140.492 126.413 140.904 126.315 141.358 126.315C142.154 126.315 142.772 126.552 143.212 127.026C143.651 127.501 143.871 128.231 143.871 129.216V132.802L144.99 132.994V133.856H141.399V132.994L142.518 132.802V129.203C142.518 128.591 142.385 128.14 142.12 127.848C141.859 127.556 141.468 127.41 140.946 127.41C140.575 127.41 140.236 127.498 139.929 127.676C139.627 127.85 139.37 128.095 139.181 128.388V132.802L140.3 132.994V133.856H136.709V132.994V132.994ZM150.82 133.856C150.783 133.677 150.751 133.497 150.724 133.316C150.701 133.157 150.685 132.997 150.676 132.837C150.407 133.177 150.073 133.461 149.694 133.671C149.313 133.888 148.882 134.001 148.444 134C147.671 134 147.082 133.813 146.679 133.439C146.277 133.06 146.075 132.529 146.075 131.844C146.075 131.142 146.359 130.601 146.927 130.222C147.499 129.839 148.282 129.647 149.275 129.647H150.669V128.785C150.669 128.352 150.532 128.009 150.257 127.759C149.982 127.503 149.6 127.375 149.11 127.375C148.772 127.375 148.472 127.419 148.211 127.505C147.98 127.578 147.766 127.699 147.586 127.861L147.442 128.641H146.398V127.204C146.767 126.919 147.183 126.702 147.627 126.561C148.132 126.393 148.661 126.31 149.193 126.315C150.035 126.315 150.717 126.529 151.239 126.958C151.761 127.387 152.022 128 152.022 128.799V132.645C152.026 132.736 152.033 132.827 152.042 132.919L152.592 132.994V133.856H150.82V133.856ZM148.643 132.871C149.092 132.871 149.502 132.764 149.872 132.549C150.243 132.335 150.509 132.077 150.669 131.776V130.558H149.227C148.673 130.558 148.234 130.685 147.909 130.941C147.588 131.196 147.428 131.507 147.428 131.872C147.428 132.196 147.529 132.444 147.73 132.618C147.931 132.786 148.236 132.871 148.643 132.871V132.871ZM156.156 127.321L155.263 127.457L156.794 131.673L156.918 132.207H156.959L157.089 131.673L158.573 127.457L157.673 127.321V126.451H160.543V127.321L159.932 127.423L157.44 133.856H156.417L153.896 127.423L153.285 127.321V126.451H156.156V127.321V127.321ZM164.76 134C163.725 134 162.901 133.658 162.288 132.973C161.679 132.285 161.374 131.393 161.374 130.298V129.996C161.374 128.943 161.688 128.067 162.315 127.368C162.947 126.666 163.693 126.315 164.554 126.315C165.552 126.315 166.307 126.616 166.82 127.218C167.337 127.82 167.596 128.623 167.596 129.627V130.469H162.775L162.755 130.503C162.768 131.215 162.949 131.801 163.297 132.262C163.645 132.718 164.133 132.946 164.76 132.946C165.217 132.946 165.618 132.882 165.961 132.754C166.309 132.622 166.609 132.442 166.861 132.214L167.39 133.09C167.124 133.345 166.772 133.562 166.332 133.74C165.897 133.913 165.373 134 164.76 134ZM164.554 127.375C164.1 127.375 163.714 127.567 163.393 127.95C163.073 128.329 162.876 128.806 162.803 129.381L162.816 129.415H166.243V129.237C166.243 128.708 166.101 128.265 165.817 127.909C165.533 127.553 165.112 127.375 164.554 127.375V127.375ZM174.62 128.778H173.604L173.384 127.889C173.204 127.724 172.991 127.598 172.759 127.519C172.489 127.419 172.203 127.37 171.915 127.375C171.434 127.375 171.077 127.48 170.844 127.69C170.733 127.783 170.644 127.899 170.584 128.031C170.523 128.162 170.492 128.305 170.493 128.45C170.493 128.742 170.596 128.972 170.802 129.141C171.008 129.31 171.427 129.46 172.059 129.593C172.998 129.793 173.696 130.067 174.153 130.414C174.611 130.756 174.84 131.217 174.84 131.796C174.84 132.453 174.572 132.985 174.037 133.391C173.506 133.797 172.81 134 171.949 134C171.437 134.007 170.926 133.942 170.432 133.808C170.003 133.686 169.597 133.494 169.23 133.24L169.223 131.55H170.239L170.493 132.542C170.649 132.684 170.86 132.786 171.125 132.85C171.395 132.914 171.67 132.946 171.949 132.946C172.43 132.946 172.805 132.85 173.075 132.659C173.35 132.462 173.487 132.207 173.487 131.892C173.49 131.752 173.46 131.613 173.401 131.486C173.342 131.359 173.254 131.247 173.144 131.16C172.92 130.968 172.492 130.802 171.86 130.66C170.958 130.464 170.278 130.197 169.821 129.86C169.363 129.522 169.134 129.066 169.134 128.491C169.134 127.889 169.39 127.375 169.903 126.951C170.42 126.527 171.091 126.315 171.915 126.315C172.478 126.315 172.984 126.388 173.432 126.534C173.843 126.659 174.224 126.866 174.552 127.143L174.62 128.778V128.778ZM83.141 9.102L83.883 9L87.378 0H88.538L91.972 9L92.707 9.102V9.964H89.837V9.102L90.592 8.972L89.932 7.138H85.93L85.25 8.972L86.006 9.102V9.964H83.14V9.102H83.141ZM86.348 6.009H89.52L87.97 1.73H87.928L86.348 6.008V6.009ZM95.46 3.429L94.609 3.579L95.577 7.268L95.735 8.164H95.776L95.968 7.268L97.451 2.56H98.536L100.027 7.268L100.239 8.268H100.281L100.48 7.268L101.393 3.579L100.528 3.429V2.559H103.357V3.429L102.711 3.524L100.837 9.964H99.745L98.303 5.454L97.994 4.209L97.953 4.216L97.664 5.454L96.25 9.964H95.158L93.283 3.524L92.631 3.429V2.559H95.461V3.429H95.46ZM107.848 10.108C106.813 10.108 105.989 9.766 105.376 9.082C104.767 8.392 104.462 7.501 104.462 6.406V6.105C104.462 5.051 104.776 4.175 105.403 3.477C106.035 2.774 106.781 2.423 107.642 2.423C108.64 2.423 109.395 2.723 109.908 3.326C110.425 3.928 110.684 4.731 110.684 5.735V6.577H105.863L105.843 6.611C105.856 7.323 106.037 7.909 106.385 8.37C106.733 8.826 107.221 9.054 107.848 9.054C108.306 9.054 108.706 8.99 109.049 8.863C109.397 8.73 109.697 8.55 109.949 8.322L110.478 9.198C110.212 9.453 109.86 9.67 109.42 9.848C108.985 10.021 108.461 10.108 107.848 10.108V10.108ZM107.642 3.483C107.189 3.483 106.802 3.675 106.481 4.058C106.161 4.437 105.964 4.914 105.891 5.488L105.905 5.523H109.331V5.345C109.331 4.815 109.189 4.373 108.905 4.017C108.621 3.661 108.2 3.483 107.642 3.483V3.483ZM117.708 4.886H116.692L116.472 3.996C116.291 3.83152 116.079 3.70592 115.848 3.627C115.578 3.52713 115.291 3.47831 115.003 3.483C114.522 3.483 114.165 3.588 113.932 3.798C113.821 3.89118 113.733 4.00759 113.672 4.13895C113.612 4.27031 113.581 4.41338 113.582 4.558C113.582 4.85 113.685 5.08 113.891 5.249C114.097 5.418 114.515 5.569 115.147 5.701C116.086 5.901 116.784 6.175 117.242 6.522C117.699 6.864 117.928 7.325 117.928 7.904C117.928 8.561 117.66 9.093 117.125 9.499C116.594 9.905 115.898 10.109 115.037 10.109C114.525 10.1152 114.014 10.0502 113.52 9.916C113.091 9.79312 112.685 9.60128 112.318 9.348L112.311 7.658H113.327L113.582 8.65C113.737 8.792 113.948 8.894 114.213 8.958C114.483 9.022 114.758 9.054 115.037 9.054C115.518 9.054 115.893 8.958 116.163 8.767C116.438 8.571 116.575 8.315 116.575 8C116.578 7.85984 116.548 7.72091 116.489 7.59397C116.429 7.46703 116.342 7.35549 116.232 7.268C116.008 7.076 115.58 6.91 114.948 6.768C114.046 6.572 113.366 6.305 112.909 5.968C112.451 5.63 112.222 5.174 112.222 4.598C112.222 3.997 112.478 3.483 112.991 3.059C113.508 2.635 114.179 2.423 115.003 2.423C115.566 2.423 116.072 2.496 116.521 2.642C116.969 2.788 117.342 2.991 117.64 3.251L117.708 4.886V4.886ZM119.199 6.194C119.199 5.099 119.496 4.197 120.091 3.49C120.686 2.779 121.494 2.423 122.515 2.423C123.541 2.423 124.351 2.776 124.946 3.483C125.546 4.191 125.846 5.094 125.846 6.193V6.344C125.846 7.448 125.548 8.352 124.953 9.054C124.358 9.757 123.55 10.108 122.529 10.108C121.499 10.108 120.686 9.757 120.091 9.054C119.496 8.347 119.199 7.444 119.199 6.344V6.194V6.194ZM120.551 6.344C120.551 7.129 120.716 7.777 121.046 8.288C121.38 8.798 121.874 9.054 122.529 9.054C123.17 9.054 123.657 8.799 123.992 8.288C124.326 7.777 124.493 7.128 124.493 6.344V6.194C124.493 5.418 124.326 4.772 123.992 4.257C123.657 3.741 123.165 3.483 122.515 3.483C121.865 3.483 121.375 3.741 121.046 4.257C120.716 4.772 120.551 5.417 120.551 6.194V6.344ZM126.821 9.102L127.94 8.91V3.62L126.821 3.429V2.559H129.155L129.245 3.524C129.483 3.174 129.789 2.902 130.165 2.71C130.54 2.518 130.975 2.423 131.47 2.423C131.964 2.423 132.387 2.537 132.74 2.765C133.097 2.993 133.365 3.335 133.543 3.791C133.764 3.38575 134.082 3.04228 134.47 2.792C134.855 2.546 135.303 2.422 135.816 2.422C136.576 2.422 137.176 2.682 137.615 3.202C138.055 3.718 138.275 4.496 138.275 5.537V8.91L139.394 9.102V9.964H135.796V9.102L136.915 8.91V5.523C136.915 4.793 136.789 4.277 136.537 3.976C136.285 3.67 135.912 3.518 135.418 3.518C134.946 3.518 134.566 3.684 134.278 4.018C133.994 4.346 133.829 4.761 133.784 5.263V8.91L134.903 9.102V9.964H131.312V9.102L132.431 8.91V5.523C132.431 4.829 132.3 4.323 132.039 4.003C131.783 3.68 131.41 3.518 130.92 3.518C130.508 3.518 130.169 3.602 129.904 3.771C129.635 3.9435 129.423 4.19104 129.293 4.483V8.91L130.412 9.102V9.964H126.821V9.102V9.102ZM143.706 10.108C142.672 10.108 141.848 9.766 141.234 9.082C140.625 8.392 140.321 7.501 140.321 6.406V6.105C140.321 5.051 140.634 4.175 141.262 3.477C141.893 2.774 142.64 2.423 143.5 2.423C144.498 2.423 145.253 2.723 145.766 3.326C146.283 3.928 146.542 4.731 146.542 5.735V6.577H141.722L141.701 6.611C141.715 7.323 141.896 7.909 142.244 8.37C142.591 8.826 143.079 9.054 143.706 9.054C144.164 9.054 144.564 8.99 144.908 8.863C145.239 8.74093 145.544 8.55737 145.807 8.322L146.336 9.198C146.071 9.453 145.718 9.67 145.279 9.848C144.844 10.021 144.32 10.108 143.706 10.108V10.108ZM143.5 3.483C143.047 3.483 142.66 3.675 142.34 4.058C142.019 4.437 141.822 4.914 141.749 5.488L141.763 5.523H145.189V5.345C145.189 4.815 145.047 4.373 144.764 4.017C144.48 3.661 144.059 3.483 143.5 3.483V3.483Z" fill="#999591"/>
<path d="M0 106.073H230.033V108.075H0V106.073ZM0 25.983H230.033V27.985H0V25.983Z" fill="#FF9000"/>
<path d="M53.28 64.802V78.874C53.2835 80.0532 53.0338 81.2194 52.548 82.294C52.1116 83.3204 51.4814 84.2531 50.692 85.041C49.8862 85.8379 48.93 86.4667 47.879 86.891C46.8211 87.3786 45.6689 87.6275 44.504 87.62C43.304 87.62 42.179 87.396 41.129 86.947C40.11 86.5188 39.1762 85.9112 38.372 85.153C37.5868 84.3712 36.9402 83.4615 36.46 82.463C36.0055 81.3976 35.7571 80.2558 35.728 79.098V68.727C35.616 67.568 35.091 66.727 34.153 66.204C34.64 65.9514 35.1795 65.8168 35.728 65.811V52.581C35.7573 51.4234 36.0056 50.282 36.46 49.217C36.9214 48.2071 37.5702 47.2939 38.372 46.526C39.1639 45.7383 40.0999 45.1102 41.129 44.676C42.1964 44.2238 43.3449 43.9948 44.504 44.003C45.704 44.003 46.829 44.246 47.879 44.732C48.93 45.1562 49.8862 45.785 50.692 46.582C51.4907 47.3838 52.1216 48.3366 52.548 49.385C53.036 50.431 53.279 51.571 53.279 52.805C53.279 53.44 53.336 53.907 53.449 54.206C53.599 54.506 53.749 54.748 53.899 54.936C54.049 55.122 54.179 55.29 54.292 55.44C54.442 55.59 54.517 55.832 54.517 56.169H51.592C50.992 56.094 50.692 55.776 50.692 55.216C50.692 55.776 50.392 56.094 49.792 56.169H46.81C46.81 55.832 46.866 55.589 46.979 55.439C47.129 55.29 47.279 55.122 47.429 54.935C47.579 54.748 47.71 54.505 47.823 54.206C47.973 53.907 48.048 53.421 48.048 52.749V52.693C48.048 52.207 48.029 51.627 47.992 50.955C47.9588 50.2665 47.8261 49.5864 47.598 48.936C47.3817 48.3139 47.0144 47.7552 46.529 47.31C46.041 46.862 45.366 46.638 44.504 46.638C43.604 46.638 42.91 46.881 42.423 47.367C41.973 47.815 41.635 48.357 41.41 48.992C41.182 49.6424 41.0492 50.3225 41.016 51.011C40.979 51.721 40.96 52.319 40.96 52.805V65.81C41.485 65.81 42.01 65.941 42.535 66.203C41.597 66.726 41.073 67.567 40.96 68.726V78.873C40.96 79.359 40.979 79.957 41.016 80.667C41.054 81.34 41.185 82.013 41.41 82.685C41.6203 83.2966 41.9666 83.8526 42.423 84.311C42.91 84.76 43.603 84.984 44.503 84.984C45.403 84.984 46.079 84.76 46.529 84.311C47.016 83.863 47.373 83.321 47.598 82.685C47.8191 82.0329 47.9516 81.3542 47.992 80.667C48.029 79.957 48.048 79.359 48.048 78.873V67.381C47.6425 67.4151 47.2629 67.5944 46.979 67.886C46.7186 68.1789 46.578 68.5591 46.585 68.951V69.007C46.548 69.567 46.398 70.053 46.135 70.465C45.91 70.838 45.573 71.175 45.123 71.474C44.673 71.735 44.016 71.866 43.153 71.866V64.802H53.28V64.802ZM38.766 63.176C38.766 62.952 38.747 62.728 38.71 62.504V60.597C38.6735 59.8128 38.6548 59.0279 38.654 58.243C38.654 57.495 38.634 56.785 38.597 56.113C38.5619 55.8149 38.5432 55.5151 38.541 55.215C38.541 54.916 38.522 54.617 38.485 54.318C38.485 54.057 38.466 53.814 38.429 53.59V52.917C38.429 52.73 38.409 52.562 38.372 52.412V51.74C38.335 51.74 38.316 51.758 38.316 51.796V52.02C38.316 52.132 38.297 52.263 38.26 52.412V52.917C38.26 53.104 38.241 53.328 38.204 53.59V54.318C38.1663 54.6158 38.1473 54.9157 38.147 55.216C38.147 55.477 38.129 55.776 38.091 56.112C38.0526 56.8213 38.0339 57.5316 38.035 58.242C38.035 58.99 38.016 59.775 37.979 60.597V61.887C37.979 62.074 37.959 62.279 37.922 62.504V68.727C37.9555 68.8167 37.9747 68.9112 37.979 69.007V72.147C38.016 72.52 38.035 72.894 38.035 73.267V74.445C38.072 74.782 38.091 75.099 38.091 75.398C38.129 75.735 38.147 76.052 38.147 76.351C38.147 76.651 38.167 76.931 38.204 77.192V77.977C38.241 78.201 38.26 78.407 38.26 78.594V79.098C38.297 79.248 38.316 79.378 38.316 79.491V79.771C38.316 79.809 38.335 79.827 38.372 79.827V79.491V79.098C38.41 78.948 38.429 78.781 38.429 78.594V77.977C38.466 77.753 38.485 77.491 38.485 77.192C38.522 76.931 38.541 76.65 38.541 76.352C38.541 76.052 38.56 75.735 38.597 75.398V74.445C38.635 74.071 38.654 73.679 38.654 73.268V72.147C38.691 71.735 38.71 71.324 38.71 70.913V69.68C38.71 69.38 38.729 69.156 38.766 69.007V63.177V63.176ZM51.029 71.306C50.992 70.932 50.973 70.596 50.973 70.296C50.973 69.96 50.954 69.642 50.917 69.343C50.8902 68.8728 50.8335 68.4049 50.747 67.942C50.7465 67.864 50.7277 67.7873 50.692 67.718V67.381L50.635 67.437V67.549C50.6283 67.6086 50.6093 67.6661 50.579 67.718V67.942C50.4929 68.4049 50.4365 68.8728 50.41 69.343C50.3716 69.6592 50.3529 69.9774 50.354 70.296C50.354 70.596 50.335 70.932 50.298 71.306V71.866C50.298 71.978 50.279 72.091 50.242 72.203V74.78C50.242 74.893 50.26 74.986 50.298 75.06V76.406C50.335 76.556 50.354 76.724 50.354 76.911V77.415C50.392 77.565 50.41 77.715 50.41 77.864C50.448 78.014 50.467 78.163 50.467 78.313C50.467 78.425 50.485 78.537 50.523 78.649V78.985C50.5561 79.0748 50.575 79.1693 50.579 79.265V79.49C50.617 79.565 50.635 79.62 50.635 79.658V79.77C50.635 79.808 50.655 79.826 50.692 79.826V79.658V79.49C50.728 79.4207 50.7472 79.344 50.748 79.266V78.986C50.785 78.873 50.804 78.761 50.804 78.649C50.842 78.537 50.86 78.425 50.86 78.312C50.86 78.163 50.88 78.013 50.917 77.864V77.416C50.954 77.266 50.973 77.098 50.973 76.911V76.406C51.011 76.256 51.029 76.089 51.029 75.902V75.342C51.029 75.192 51.048 75.098 51.085 75.061V72.426C51.0842 72.3479 51.065 72.2712 51.029 72.202V71.305V71.306ZM73.715 65.868C74.352 65.868 74.877 65.998 75.29 66.26C74.8629 66.536 74.4987 66.8989 74.221 67.325C73.9587 67.7732 73.7868 68.2686 73.715 68.783V77.248C73.6851 78.4114 73.4169 79.5563 72.927 80.612C72.4804 81.6162 71.8511 82.5287 71.071 83.303C70.2672 84.0612 69.3337 84.6688 68.315 85.097C67.2473 85.5491 66.0985 85.7782 64.939 85.77C63.739 85.77 62.614 85.546 61.564 85.097C60.5453 84.6688 59.6118 84.0612 58.808 83.303C58.0224 82.5212 57.3755 81.6116 56.895 80.613C56.4409 79.5476 56.1928 78.4057 56.164 77.248V68.783C56.051 67.624 55.526 66.783 54.589 66.26C55.002 65.998 55.527 65.868 56.164 65.868V55.048C56.1969 53.9087 56.4449 52.786 56.895 51.739C57.3567 50.7293 58.0059 49.8165 58.808 49.049C59.5996 48.2613 60.5353 47.6333 61.564 47.199C62.6314 46.7469 63.7799 46.5178 64.939 46.526C66.139 46.526 67.265 46.75 68.315 47.198C69.3438 47.6323 70.2794 48.2603 71.071 49.048C71.8674 49.8084 72.4991 50.7243 72.927 51.739C73.415 52.786 73.677 53.889 73.715 55.047V65.867V65.868ZM59.202 63.849C59.202 63.662 59.182 63.494 59.145 63.345V61.719C59.1086 61.0466 59.09 60.3733 59.089 59.7C59.089 59.065 59.07 58.467 59.033 57.906C58.9958 57.6463 58.977 57.3843 58.977 57.122C58.977 56.86 58.957 56.617 58.92 56.392C58.92 56.168 58.902 55.963 58.864 55.776V55.271C58.864 55.085 58.845 54.935 58.808 54.823V54.207C58.77 54.207 58.752 54.225 58.752 54.262V54.487C58.752 54.561 58.732 54.673 58.695 54.823V55.272C58.695 55.421 58.677 55.589 58.639 55.776V56.393C58.6003 56.634 58.5815 56.8778 58.583 57.122C58.583 57.383 58.564 57.645 58.527 57.907C58.489 58.467 58.47 59.065 58.47 59.701C58.47 60.336 58.452 61.009 58.414 61.719V62.784C58.414 62.971 58.395 63.158 58.358 63.344V68.279C58.358 68.539 58.377 68.727 58.414 68.839V71.474C58.452 71.81 58.47 72.128 58.47 72.427V73.38C58.508 73.642 58.527 73.922 58.527 74.22C58.564 74.52 58.583 74.8 58.583 75.062C58.583 75.286 58.602 75.51 58.639 75.735V76.351C58.677 76.538 58.695 76.725 58.695 76.911V77.416C58.7285 77.5057 58.7477 77.6002 58.752 77.696V77.865C58.752 77.902 58.77 77.921 58.808 77.921V77.697V77.417C58.845 77.267 58.864 77.099 58.864 76.912V76.352C58.903 76.1486 58.9217 75.942 58.92 75.735C58.958 75.51 58.977 75.286 58.977 75.062C58.977 74.8 58.995 74.52 59.033 74.221V73.38C59.07 73.081 59.089 72.763 59.089 72.427V71.474C59.1264 71.1386 59.1451 70.8014 59.145 70.464V68.84C59.183 68.728 59.202 68.54 59.202 68.28V63.85V63.849ZM68.483 55.272C68.483 54.786 68.465 54.188 68.427 53.478C68.3938 52.7895 68.2611 52.1094 68.033 51.459C67.8168 50.8368 67.4495 50.2781 66.964 49.833C66.514 49.347 65.84 49.105 64.939 49.105C64.039 49.105 63.346 49.347 62.859 49.833C62.409 50.282 62.071 50.823 61.845 51.459C61.6174 52.1092 61.485 52.7889 61.452 53.477C61.414 54.187 61.396 54.786 61.396 55.272V65.868C62.033 65.868 62.558 65.998 62.971 66.26C62.033 66.783 61.508 67.624 61.396 68.783V77.024C61.396 77.51 61.414 78.108 61.452 78.818C61.489 79.491 61.621 80.164 61.846 80.836C62.056 81.4475 62.402 82.0035 62.858 82.462C63.346 82.911 64.039 83.135 64.939 83.135C65.839 83.135 66.515 82.911 66.965 82.462C67.452 82.014 67.808 81.472 68.033 80.836C68.2541 80.184 68.3866 79.5052 68.427 78.818C68.465 78.108 68.483 77.51 68.483 77.024V68.783C68.408 67.662 67.883 66.821 66.908 66.26C67.321 65.998 67.846 65.868 68.483 65.868V55.272V55.272ZM71.521 63.849V63.345C71.521 63.158 71.502 62.971 71.465 62.784V61.719C71.465 61.009 71.446 60.336 71.409 59.7C71.409 59.065 71.389 58.467 71.352 57.906C71.3148 57.6463 71.296 57.3843 71.296 57.122C71.296 56.86 71.277 56.617 71.24 56.392C71.24 56.168 71.221 55.963 71.184 55.776V55.271C71.184 55.085 71.164 54.935 71.127 54.823V54.207C71.09 54.207 71.071 54.225 71.071 54.262V54.823C71.071 54.935 71.052 55.085 71.015 55.272C71.015 55.421 70.996 55.589 70.959 55.776V56.393C70.9199 56.634 70.9009 56.8778 70.902 57.122C70.902 57.383 70.883 57.645 70.846 57.907C70.808 58.467 70.79 59.065 70.79 59.701C70.79 60.336 70.771 61.009 70.734 61.719V63.849C70.696 64.223 70.677 64.597 70.677 64.971V67.213C70.677 67.549 70.696 67.904 70.733 68.278V71.474C70.771 71.81 70.79 72.128 70.79 72.427V73.38C70.827 73.642 70.846 73.922 70.846 74.22C70.883 74.52 70.902 74.8 70.902 75.062C70.902 75.286 70.921 75.51 70.958 75.735V76.351C70.996 76.538 71.015 76.725 71.015 76.911C71.052 77.099 71.071 77.267 71.071 77.416V77.865C71.071 77.902 71.09 77.921 71.127 77.921V77.697V77.417C71.165 77.267 71.183 77.099 71.183 76.912V76.352C71.2223 76.1487 71.2414 75.942 71.24 75.735C71.277 75.51 71.296 75.286 71.296 75.062C71.296 74.8 71.315 74.52 71.352 74.221V73.38C71.39 73.081 71.408 72.763 71.408 72.427V71.474C71.4457 71.1386 71.4648 70.8014 71.465 70.464V69.4V69.12C71.4982 69.0298 71.5171 68.935 71.521 68.839V63.849ZM94.59 58.635C94.59 60.317 94.177 61.831 93.352 63.176C92.548 64.5019 91.4014 65.5866 90.033 66.316C90.708 66.839 91.327 67.456 91.89 68.166C92.4575 68.8469 92.9305 69.6014 93.296 70.409C93.709 71.231 94.027 72.072 94.252 72.931C94.477 73.791 94.59 74.632 94.59 75.454V79.042C94.561 80.1994 94.313 81.3409 93.859 82.406C93.4121 83.4103 92.7824 84.3228 92.002 85.097C91.1981 85.8551 90.2647 86.4627 89.246 86.891C88.1881 87.3786 87.0359 87.6275 85.871 87.62H80.583C80.4574 87.6217 80.3327 87.5978 80.2166 87.5497C80.1005 87.5015 79.9955 87.4302 79.908 87.34C79.7565 87.1489 79.6769 86.9107 79.683 86.667C79.6848 86.7924 79.6607 86.9169 79.6124 87.0326C79.564 87.1484 79.4924 87.253 79.402 87.34C79.214 87.527 79.008 87.62 78.782 87.62H75.802C75.802 87.284 75.858 87.04 75.97 86.891C76.12 86.741 76.27 86.573 76.42 86.387C76.57 86.237 76.701 86.013 76.814 85.714C76.964 85.414 77.039 84.948 77.039 84.312V68.671C76.927 67.549 76.401 66.727 75.464 66.204C75.9363 65.9091 76.4822 65.7535 77.039 65.755V47.311C77.039 46.675 76.964 46.208 76.814 45.909C76.702 45.609 76.57 45.386 76.42 45.236C76.27 45.049 76.12 44.881 75.97 44.732C75.858 44.582 75.802 44.339 75.802 44.002H78.782C79.008 44.002 79.214 44.096 79.402 44.283C79.589 44.433 79.682 44.638 79.682 44.9C79.682 44.302 79.982 44.003 80.583 44.003H85.871C87.0301 43.9948 88.1787 44.2238 89.246 44.676C90.2747 45.1103 91.2104 45.7384 92.002 46.526C92.7986 47.2861 93.4307 48.2016 93.859 49.216C94.309 50.263 94.552 51.366 94.589 52.524V58.635H94.59ZM80.077 62.784C80.077 62.522 80.057 62.279 80.02 62.055V59.87C79.9837 58.9547 79.9651 58.0389 79.964 57.123C79.964 56.263 79.945 55.459 79.908 54.712C79.8725 54.3393 79.8538 53.9653 79.852 53.591C79.852 53.254 79.832 52.936 79.795 52.637C79.795 52.338 79.777 52.058 79.739 51.797V51.067C79.739 50.843 79.72 50.638 79.683 50.451V49.666C79.645 49.704 79.627 49.741 79.627 49.778V50.003C79.627 50.115 79.607 50.264 79.57 50.451V51.068C79.57 51.255 79.552 51.498 79.514 51.797V52.637C79.4755 52.9535 79.4568 53.2721 79.458 53.591C79.458 53.927 79.439 54.301 79.402 54.711C79.3629 55.5144 79.3439 56.3186 79.345 57.123C79.345 57.983 79.327 58.898 79.289 59.87V62.056C79.289 62.279 79.27 62.522 79.233 62.784V69.175C79.27 69.287 79.289 69.418 79.289 69.568V73.156C79.327 73.604 79.345 74.034 79.345 74.446V75.679C79.383 76.089 79.402 76.501 79.402 76.912C79.439 77.099 79.458 77.286 79.458 77.472V78.482C79.495 78.632 79.514 78.781 79.514 78.93V79.827C79.552 80.089 79.57 80.332 79.57 80.557V81.173C79.608 81.323 79.627 81.453 79.627 81.565V81.845C79.627 81.883 79.645 81.92 79.683 81.958V81.565V81.173C79.722 80.9696 79.7407 80.763 79.739 80.556V79.827C79.777 79.528 79.795 79.229 79.795 78.93C79.833 78.78 79.852 78.631 79.852 78.482V77.977V77.473C79.889 77.286 79.908 77.099 79.908 76.912V75.679C79.945 75.267 79.964 74.856 79.964 74.445V73.155C80.002 72.67 80.02 72.184 80.02 71.698V70.297C80.02 69.96 80.04 69.717 80.077 69.567V62.784V62.784ZM91.665 77.921C91.627 78.033 91.609 78.221 91.609 78.481V79.491C91.609 79.678 91.589 79.846 91.552 79.995V80.444C91.552 80.594 91.533 80.724 91.496 80.836V81.341C91.459 81.378 91.44 81.434 91.44 81.509V81.789C91.402 81.827 91.384 81.864 91.384 81.902V82.014C91.384 82.051 91.364 82.089 91.327 82.126V82.182C91.327 82.219 91.308 82.257 91.271 82.294H91.327L91.383 82.182L91.44 82.07C91.477 82.032 91.496 81.995 91.496 81.958C91.534 81.92 91.552 81.883 91.552 81.846C91.59 81.808 91.608 81.771 91.608 81.733C91.646 81.696 91.665 81.64 91.665 81.565C91.7018 81.5284 91.7307 81.4847 91.75 81.4365C91.7692 81.3884 91.7784 81.3368 91.777 81.285C91.852 81.135 91.927 80.874 92.002 80.5C92.077 80.276 92.115 80.126 92.115 80.052C92.1512 79.9824 92.1704 79.9053 92.171 79.827C92.171 79.715 92.19 79.622 92.227 79.547V79.323C92.2601 79.2331 92.279 79.1386 92.283 79.043C92.321 78.93 92.34 78.762 92.34 78.538C92.377 78.351 92.396 78.164 92.396 77.978C92.396 77.79 92.415 77.603 92.452 77.417V75.062C92.452 74.875 92.433 74.688 92.396 74.502C92.396 74.314 92.377 74.128 92.34 73.941C92.34 73.716 92.321 73.548 92.284 73.436C92.2829 73.3578 92.2634 73.2811 92.227 73.212V72.932C92.1909 72.8624 92.1717 72.7853 92.171 72.707C92.1743 72.6105 92.1551 72.5147 92.115 72.427C92.1142 72.3489 92.095 72.2722 92.059 72.203V71.978C91.984 71.754 91.946 71.623 91.946 71.586C91.8988 71.4515 91.8424 71.3205 91.777 71.194C91.7784 71.1421 91.7692 71.0905 91.75 71.0424C91.7307 70.9942 91.7018 70.9505 91.665 70.914C91.6665 70.8619 91.6572 70.8101 91.6377 70.7617C91.6183 70.7134 91.5891 70.6695 91.552 70.633L91.383 70.296C91.346 70.259 91.327 70.222 91.327 70.184H91.271L91.327 70.296V70.409C91.365 70.409 91.383 70.427 91.383 70.465C91.383 70.539 91.403 70.615 91.44 70.689V70.969C91.4801 71.0567 91.4993 71.1525 91.496 71.249C91.496 71.436 91.515 71.567 91.552 71.642V72.034C91.59 72.184 91.608 72.334 91.608 72.483V73.772C91.646 73.847 91.665 73.922 91.665 73.997V77.921ZM89.358 75.454C89.358 74.968 89.34 74.277 89.302 73.38C89.2628 72.4719 89.1308 71.5702 88.908 70.689C88.683 69.792 88.328 69.026 87.84 68.39C87.39 67.718 86.714 67.381 85.814 67.381H83.79C83.378 67.381 83.022 67.531 82.722 67.83C82.422 68.129 82.272 68.484 82.272 68.895V83.47C82.272 83.881 82.422 84.237 82.722 84.536C83.022 84.797 83.378 84.946 83.79 84.984H85.815C86.715 84.984 87.391 84.76 87.841 84.311C88.3198 83.8384 88.6849 83.2632 88.909 82.629C89.137 81.9788 89.2697 81.2991 89.303 80.611C89.341 79.901 89.359 79.303 89.359 78.817V75.453L89.358 75.454ZM89.358 52.749C89.358 52.263 89.34 51.683 89.302 51.011C89.2688 50.3225 89.1361 49.6424 88.908 48.992C88.6919 48.3703 88.3249 47.812 87.84 47.367C87.39 46.881 86.714 46.637 85.814 46.637H83.79C83.378 46.637 83.022 46.787 82.722 47.087C82.422 47.385 82.272 47.74 82.272 48.151V63.232C82.272 63.644 82.422 63.999 82.722 64.298C83.022 64.597 83.378 64.746 83.79 64.746H85.815C86.715 64.746 87.391 64.522 87.841 64.074C88.326 63.6286 88.693 63.07 88.909 62.448C89.1302 61.7956 89.2627 61.1166 89.303 60.429C89.341 59.719 89.359 59.121 89.359 58.635V52.75L89.358 52.749ZM91.89 60.149C91.965 59.925 92.002 59.775 92.002 59.7C92.0744 59.5616 92.1131 59.4081 92.115 59.252C92.151 59.1827 92.1702 59.106 92.171 59.028C92.171 58.916 92.19 58.822 92.227 58.748V58.523C92.265 58.411 92.283 58.299 92.283 58.187C92.321 58.075 92.34 57.887 92.34 57.627C92.377 57.439 92.396 57.252 92.396 57.065C92.396 56.879 92.415 56.692 92.452 56.505V55.272V54.094C92.452 53.684 92.433 53.291 92.396 52.917C92.3629 52.8271 92.344 52.7326 92.34 52.637C92.3433 52.5405 92.3241 52.4447 92.284 52.357C92.284 52.095 92.264 51.907 92.227 51.796C92.1937 51.6268 92.1563 51.4584 92.115 51.291C92.115 51.141 92.096 50.992 92.059 50.843C91.984 50.618 91.946 50.469 91.946 50.394C91.871 50.244 91.834 50.132 91.834 50.058L91.664 49.721C91.6654 49.6691 91.6562 49.6175 91.637 49.5694C91.6177 49.5212 91.5888 49.4775 91.552 49.441C91.5049 49.3062 91.4484 49.1749 91.383 49.048L91.271 48.936V49.048C91.308 49.048 91.327 49.068 91.327 49.105C91.365 49.142 91.383 49.198 91.383 49.273C91.383 49.347 91.403 49.423 91.44 49.497V49.777C91.4834 49.8838 91.5025 49.9989 91.496 50.114V50.338C91.534 50.375 91.552 50.431 91.552 50.506V50.899C91.59 51.049 91.608 51.198 91.608 51.347V52.692C91.646 52.767 91.665 52.842 91.665 52.917V57.065C91.627 57.178 91.609 57.365 91.609 57.626V58.691C91.609 58.878 91.589 59.046 91.552 59.196V59.645C91.552 59.794 91.533 59.943 91.496 60.093V60.429C91.496 60.616 91.477 60.729 91.44 60.766V61.102C91.402 61.102 91.384 61.14 91.384 61.214V61.326C91.384 61.364 91.364 61.401 91.327 61.438V61.494C91.327 61.532 91.308 61.569 91.271 61.607L91.383 61.495V61.439C91.421 61.401 91.44 61.364 91.44 61.326C91.477 61.326 91.496 61.289 91.496 61.214C91.534 61.214 91.552 61.177 91.552 61.102C91.59 61.102 91.608 61.065 91.608 60.99C91.646 60.953 91.665 60.897 91.665 60.822C91.7018 60.7854 91.7307 60.7417 91.75 60.6935C91.7692 60.6454 91.7784 60.5938 91.777 60.542C91.852 60.317 91.89 60.186 91.89 60.149ZM115.867 82.406C116.017 83.041 116.186 83.509 116.373 83.808C116.561 84.107 116.748 84.35 116.936 84.537L117.442 85.041C117.592 85.191 117.705 85.434 117.78 85.77H114.798C114.536 85.77 114.292 85.677 114.067 85.49C113.883 85.3095 113.764 85.0727 113.729 84.817C113.751 84.9346 113.747 85.0556 113.718 85.1717C113.689 85.2878 113.636 85.3963 113.561 85.49C113.496 85.5776 113.411 85.6487 113.313 85.6974C113.215 85.746 113.107 85.7709 112.998 85.77H110.017C109.942 85.434 109.961 85.19 110.073 85.041L110.411 84.593C110.539 84.3645 110.634 84.1186 110.692 83.863C110.767 83.527 110.748 83.023 110.636 82.35V82.294L109.398 75.959C109.323 75.585 109.117 75.267 108.779 75.006C108.442 74.706 108.067 74.557 107.654 74.557H103.773C103.36 74.557 102.985 74.707 102.648 75.006C102.31 75.267 102.104 75.586 102.029 75.959L100.848 82.294V82.35C100.735 83.023 100.698 83.527 100.735 83.864C100.81 84.163 100.904 84.406 101.016 84.593C101.166 84.743 101.279 84.892 101.354 85.041C101.466 85.191 101.504 85.434 101.466 85.77H98.485C98.3671 85.7753 98.2496 85.7527 98.142 85.7041C98.0344 85.6554 97.9399 85.582 97.866 85.49C97.7914 85.3964 97.7377 85.2879 97.7086 85.1718C97.6794 85.0557 97.6755 84.9347 97.697 84.817C97.66 85.079 97.547 85.303 97.36 85.49C97.2725 85.5802 97.1675 85.6515 97.0514 85.6997C96.9354 85.7478 96.8107 85.7717 96.685 85.77H93.704C93.741 85.434 93.834 85.19 93.984 85.041L94.491 84.537C94.679 84.35 94.866 84.107 95.054 83.807C95.241 83.509 95.41 83.041 95.56 82.407L98.091 68.783C98.1697 68.2907 98.1112 67.7862 97.922 67.325C97.7411 66.8844 97.4262 66.5118 97.022 66.26C97.622 65.998 98.166 65.868 98.654 65.868L101.691 49.889C101.804 49.254 101.823 48.787 101.748 48.488C101.673 48.151 101.579 47.908 101.466 47.759C101.362 47.585 101.25 47.4164 101.129 47.254C101.016 47.105 100.998 46.862 101.073 46.526H104.841C105.404 46.6 105.685 46.918 105.685 47.479C105.685 47.217 105.76 47.011 105.91 46.862C106.098 46.675 106.304 46.563 106.529 46.526H110.354C110.429 46.862 110.411 47.105 110.298 47.254C110.223 47.404 110.129 47.572 110.017 47.759C109.904 47.909 109.81 48.151 109.735 48.488C109.66 48.787 109.679 49.254 109.792 49.889L112.773 65.868C113.073 65.868 113.354 65.905 113.617 65.98C113.879 66.054 114.142 66.148 114.404 66.26C113.579 66.783 113.223 67.624 113.336 68.783L115.867 82.406V82.406ZM102.366 62.336C102.437 62.1377 102.475 61.9294 102.479 61.719C102.516 61.495 102.554 61.289 102.591 61.102C102.779 60.242 102.929 59.439 103.041 58.692C103.154 57.907 103.266 57.196 103.379 56.561C103.454 56.262 103.491 55.963 103.491 55.664L103.604 54.767C103.641 54.505 103.679 54.262 103.716 54.038C103.754 53.814 103.791 53.608 103.829 53.421C103.866 53.235 103.885 53.066 103.885 52.917C103.885 52.73 103.904 52.58 103.941 52.468V52.244L103.885 52.468C103.843 52.5975 103.805 52.7286 103.773 52.861C103.735 53.011 103.698 53.179 103.66 53.365C103.577 53.5819 103.521 53.8078 103.491 54.038C103.453 54.2664 103.397 54.4914 103.323 54.711L103.098 55.608C103.06 55.9101 103.003 56.2096 102.929 56.505C102.727 57.1924 102.539 57.8838 102.366 58.579C102.216 59.289 102.048 60.074 101.86 60.934C101.86 61.158 101.841 61.364 101.804 61.551C101.76 61.7595 101.704 61.9652 101.635 62.167L101.523 62.84C101.482 63.045 101.444 63.2507 101.41 63.457C101.298 63.867 101.185 64.297 101.073 64.747L100.848 66.092C100.773 66.502 100.679 66.932 100.566 67.382C100.491 67.83 100.416 68.259 100.341 68.671C100.305 68.7792 100.286 68.8927 100.285 69.007C100.281 69.1026 100.262 69.197 100.229 69.287C100.154 69.587 100.116 69.811 100.116 69.96C99.9985 70.3624 99.9231 70.7759 99.891 71.194L99.666 72.427C99.591 72.838 99.535 73.212 99.498 73.548C99.4087 74.2615 99.296 74.9719 99.16 75.678C99.0856 75.9736 99.0291 76.2735 98.991 76.576L98.879 77.473C98.8049 77.7301 98.7484 77.9921 98.71 78.257C98.71 78.482 98.691 78.687 98.654 78.874C98.6188 79.04 98.6001 79.2092 98.598 79.379C98.598 79.529 98.578 79.659 98.541 79.771C98.541 79.846 98.522 79.902 98.485 79.939V80.051C98.522 80.051 98.541 80.033 98.541 79.995C98.541 79.921 98.56 79.845 98.597 79.771C98.6406 79.6645 98.66 79.5498 98.654 79.435C98.691 79.248 98.748 79.061 98.823 78.875C98.898 78.687 98.953 78.482 98.991 78.257C99.066 78.033 99.141 77.79 99.216 77.529C99.291 77.267 99.348 76.987 99.385 76.688C99.46 76.388 99.516 76.09 99.554 75.791C99.629 75.491 99.704 75.174 99.779 74.838C99.891 74.464 99.985 74.09 100.06 73.716C100.135 73.343 100.21 72.95 100.285 72.539L100.623 71.306L100.735 70.745C100.773 70.521 100.81 70.315 100.848 70.128L101.016 69.456C101.054 69.343 101.073 69.231 101.073 69.119C101.073 69.007 101.091 68.895 101.129 68.783C101.204 68.372 101.298 67.96 101.41 67.549C101.523 67.101 101.616 66.652 101.691 66.204C101.766 65.793 101.841 65.363 101.916 64.914C101.991 64.466 102.066 64.036 102.141 63.624L102.254 62.952C102.291 62.728 102.329 62.522 102.366 62.336V62.336ZM107.148 71.922C107.56 71.885 107.879 71.735 108.104 71.474C108.367 71.174 108.46 70.82 108.385 70.409L108.048 68.783C107.891 68.2468 107.623 67.75 107.26 67.325C106.931 66.8835 106.508 66.52 106.023 66.26C106.473 65.998 106.96 65.868 107.485 65.868L105.685 56.281L103.885 65.868C104.373 65.868 104.879 65.998 105.404 66.26C104.885 66.5171 104.425 66.8798 104.054 67.325C103.724 67.7553 103.494 68.2532 103.379 68.783L103.098 70.409C103.023 70.819 103.098 71.175 103.323 71.474C103.548 71.735 103.848 71.884 104.223 71.922H107.148V71.922ZM112.829 79.772V79.939C112.867 79.939 112.886 79.959 112.886 79.995V79.771C112.846 79.6443 112.827 79.5118 112.829 79.379C112.829 79.229 112.811 79.061 112.773 78.874C112.732 78.6689 112.695 78.4632 112.661 78.257C112.661 77.996 112.623 77.734 112.548 77.473L112.436 76.576C112.398 76.2739 112.341 75.9743 112.267 75.679C112.154 75.118 112.042 74.408 111.929 73.549C111.847 73.1764 111.772 72.8024 111.704 72.427C111.667 72.0133 111.611 71.6015 111.536 71.193C111.467 70.9914 111.41 70.7856 111.367 70.577C111.363 70.3666 111.325 70.1582 111.254 69.96C111.254 69.81 111.217 69.586 111.142 69.287C111.145 69.1906 111.126 69.0948 111.086 69.007V68.671C111.011 68.259 110.917 67.83 110.804 67.381C110.729 66.933 110.654 66.503 110.579 66.091C110.504 65.639 110.41 65.1903 110.298 64.746C110.226 64.3115 110.132 63.881 110.017 63.456C109.983 63.25 109.945 63.0447 109.904 62.84L109.792 62.167C109.723 61.9654 109.666 61.7596 109.623 61.551C109.582 61.3459 109.544 61.1402 109.51 60.934C109.34 60.145 109.152 59.3598 108.948 58.579C108.809 57.8891 108.678 57.1977 108.554 56.505L108.329 55.608L108.104 54.711L107.879 54.038C107.85 53.8077 107.793 53.5817 107.71 53.365C107.677 53.1961 107.639 53.0281 107.598 52.861C107.565 52.7286 107.528 52.5975 107.485 52.468L107.429 52.244V52.468C107.467 52.655 107.523 52.973 107.598 53.421C107.598 53.608 107.617 53.814 107.654 54.038C107.692 54.262 107.729 54.505 107.767 54.767L107.879 55.664C107.917 55.963 107.973 56.262 108.048 56.561C108.16 57.196 108.273 57.907 108.385 58.691C108.498 59.439 108.629 60.242 108.779 61.102C108.817 61.289 108.835 61.495 108.835 61.719C108.873 61.906 108.929 62.111 109.004 62.336C109.042 62.522 109.079 62.728 109.117 62.952L109.229 63.625C109.304 64.036 109.379 64.465 109.454 64.915C109.567 65.363 109.66 65.793 109.735 66.204C109.81 66.652 109.904 67.101 110.017 67.549C110.129 67.96 110.223 68.372 110.298 68.783C110.336 68.895 110.354 69.007 110.354 69.119C110.354 69.231 110.373 69.343 110.411 69.456L110.579 70.128C110.617 70.315 110.654 70.521 110.692 70.745L110.804 71.305C110.917 71.717 111.011 72.128 111.086 72.539C111.161 72.95 111.236 73.343 111.311 73.716L111.536 74.838C111.648 75.174 111.742 75.492 111.817 75.791L112.042 76.688C112.117 76.987 112.192 77.267 112.267 77.528C112.379 78.052 112.492 78.5 112.604 78.874C112.679 79.061 112.717 79.248 112.717 79.434C112.754 79.584 112.792 79.696 112.829 79.771V79.772ZM139.469 88.125C139.882 88.199 140.163 88.33 140.313 88.517C140.5 88.704 140.632 88.891 140.707 89.077C140.782 89.302 140.819 89.545 140.819 89.807C139.619 89.807 138.494 89.657 137.444 89.358C136.416 89.0704 135.459 88.5741 134.631 87.9C133.844 87.228 133.206 86.35 132.719 85.265C132.269 84.181 132.044 82.855 132.044 81.285V73.605C132.044 73.118 132.025 72.52 131.987 71.81C131.954 71.1218 131.822 70.4421 131.594 69.792C131.378 69.1699 131.01 68.6113 130.525 68.166C130.075 67.68 129.4 67.437 128.5 67.437H126.193C125.856 67.512 125.556 67.699 125.293 67.997C125.068 68.26 124.956 68.577 124.956 68.951V82.351C124.956 83.023 125.012 83.527 125.125 83.864C125.275 84.163 125.425 84.406 125.575 84.593C125.725 84.743 125.856 84.892 125.968 85.041C126.118 85.191 126.193 85.434 126.193 85.77H123.212C122.987 85.77 122.781 85.677 122.593 85.49C122.406 85.303 122.312 85.097 122.312 84.873C122.312 85.097 122.218 85.303 122.031 85.49C121.957 85.582 121.863 85.6553 121.755 85.7039C121.647 85.7526 121.53 85.7752 121.412 85.77H118.487C118.487 85.434 118.543 85.19 118.655 85.041L119.106 84.593C119.256 84.406 119.387 84.163 119.499 83.863C119.649 83.565 119.724 83.098 119.724 82.463V68.783C119.612 67.624 119.087 66.783 118.149 66.26C118.562 65.998 119.087 65.868 119.724 65.868V49.833C119.724 49.198 119.649 48.731 119.499 48.432C119.387 48.132 119.256 47.908 119.106 47.759C118.965 47.5825 118.815 47.4139 118.655 47.254C118.543 47.105 118.487 46.862 118.487 46.526H121.468C121.693 46.526 121.899 46.619 122.087 46.806C122.274 46.956 122.368 47.161 122.368 47.423C122.368 46.825 122.668 46.526 123.268 46.526H128.556C129.715 46.5175 130.864 46.7462 131.931 47.198C132.96 47.6323 133.896 48.2604 134.688 49.048C135.484 49.8085 136.116 50.7244 136.544 51.739C136.994 52.786 137.238 53.889 137.275 55.047V58.691C137.275 60.261 136.9 61.701 136.15 63.008C135.42 64.2956 134.375 65.3762 133.112 66.148C134.388 66.895 135.4 67.942 136.15 69.288C136.9 70.596 137.275 72.034 137.275 73.604V83.471C137.313 84.256 137.406 84.985 137.556 85.658C137.706 86.293 137.931 86.835 138.231 87.284C138.531 87.732 138.944 88.012 139.469 88.124V88.125ZM134.35 57.738C134.31 57.8256 134.29 57.9215 134.294 58.018V59.308C134.256 59.458 134.237 59.608 134.237 59.757V60.093C134.237 60.168 134.219 60.223 134.181 60.261V60.766C134.141 60.8538 134.122 60.9496 134.125 61.046C134.125 61.121 134.106 61.196 134.069 61.27C134.069 61.345 134.05 61.401 134.012 61.438V61.551L133.956 61.663L134.069 61.607V61.551L134.125 61.495L134.181 61.439C134.181 61.401 134.2 61.364 134.237 61.326L134.35 61.102C134.381 61.0059 134.418 60.9124 134.463 60.822L134.519 60.71C134.525 60.6503 134.544 60.5926 134.575 60.541C134.605 60.4896 134.624 60.4323 134.631 60.373C134.631 60.298 134.65 60.223 134.688 60.149C134.718 60.0974 134.737 60.0402 134.744 59.981C134.744 59.943 134.763 59.887 134.8 59.813V59.644C134.836 59.5748 134.855 59.498 134.856 59.42C134.894 59.27 134.913 59.121 134.913 58.972L135.025 58.523C135.069 58.3588 135.088 58.1888 135.081 58.019V57.794C135.118 57.7249 135.137 57.6481 135.138 57.57V55.608C135.138 55.384 135.119 55.216 135.081 55.103V54.879C135.081 54.804 135.063 54.767 135.025 54.767V54.599C135.025 54.412 134.988 54.132 134.913 53.758C134.876 53.6889 134.857 53.6121 134.856 53.534C134.856 53.4556 134.836 53.3784 134.8 53.309C134.8 53.272 134.781 53.253 134.744 53.253V53.141C134.744 53.104 134.725 53.085 134.688 53.085V52.973C134.657 52.9216 134.638 52.8643 134.631 52.805C134.625 52.7453 134.606 52.6876 134.575 52.636C134.545 52.5846 134.526 52.5273 134.519 52.468C134.512 52.4087 134.493 52.3515 134.463 52.3C134.425 52.263 134.406 52.225 134.406 52.188C134.406 52.151 134.387 52.113 134.35 52.076L134.237 51.852C134.218 51.8332 134.2 51.8145 134.181 51.796C134.181 51.758 134.162 51.721 134.125 51.684C134.087 51.646 134.069 51.609 134.069 51.571C134.031 51.534 134.012 51.497 134.012 51.459H133.956L134.012 51.571V51.684C134.05 51.721 134.069 51.796 134.069 51.908V52.02C134.106 52.02 134.125 52.057 134.125 52.132C134.122 52.2283 134.141 52.3241 134.181 52.412V52.861C134.219 52.898 134.237 52.954 134.237 53.029C134.237 53.365 134.256 53.627 134.294 53.814V54.711C134.331 54.898 134.35 55.197 134.35 55.608V57.738V57.738ZM122.762 63.513C122.762 63.326 122.743 63.12 122.706 62.896V60.99C122.669 60.2055 122.65 59.4203 122.649 58.635C122.649 57.888 122.631 57.178 122.593 56.505C122.556 56.2074 122.537 55.9078 122.537 55.608C122.537 55.308 122.518 55.028 122.481 54.767C122.481 54.467 122.462 54.207 122.424 53.982V53.365C122.424 53.178 122.406 53.01 122.368 52.861V52.188C122.331 52.188 122.312 52.207 122.312 52.244V52.468C122.312 52.58 122.293 52.711 122.256 52.861V53.365C122.256 53.552 122.237 53.758 122.199 53.982V54.767C122.161 55.0453 122.142 55.326 122.143 55.607C122.143 55.907 122.124 56.206 122.087 56.505C122.048 57.2143 122.03 57.9246 122.031 58.635C122.031 59.383 122.012 60.168 121.974 60.99V62.223C121.974 62.448 121.956 62.672 121.918 62.896V68.727C121.918 69.026 121.937 69.25 121.974 69.399V72.483C122.012 72.857 122.031 73.231 122.031 73.604V74.725C122.068 75.062 122.087 75.398 122.087 75.735C122.124 76.071 122.143 76.389 122.143 76.688C122.143 76.949 122.162 77.23 122.199 77.528V78.258C122.237 78.482 122.256 78.688 122.256 78.874V79.434C122.293 79.584 122.312 79.696 122.312 79.771V80.051C122.312 80.089 122.331 80.108 122.368 80.108V79.771V79.435C122.406 79.248 122.424 79.061 122.424 78.875V78.257C122.463 78.0163 122.482 77.7728 122.481 77.529C122.518 77.229 122.537 76.949 122.537 76.688C122.537 76.388 122.556 76.071 122.593 75.735V74.725C122.631 74.389 122.649 74.015 122.649 73.605V72.483C122.687 72.072 122.706 71.661 122.706 71.25V70.016C122.706 69.717 122.724 69.512 122.762 69.399V63.513V63.513ZM132.044 55.272C132.044 54.786 132.025 54.188 131.987 53.478C131.954 52.7895 131.822 52.1094 131.594 51.459C131.378 50.8369 131.01 50.2783 130.525 49.833C130.075 49.347 129.4 49.105 128.5 49.105H126.475C126.07 49.1386 125.69 49.3176 125.406 49.609C125.106 49.909 124.956 50.263 124.956 50.674V63.29C124.956 63.7 125.106 64.056 125.406 64.355C125.706 64.654 126.062 64.803 126.475 64.803H128.5C129.4 64.803 130.075 64.579 130.525 64.13C131.012 63.682 131.369 63.14 131.594 62.505C131.815 61.8527 131.947 61.1735 131.987 60.486C132.025 59.776 132.044 59.178 132.044 58.692V55.272ZM135.813 85.994L135.756 85.938L135.7 85.882L135.588 85.658C135.588 85.583 135.55 85.508 135.475 85.434L135.363 85.097C135.325 84.947 135.288 84.78 135.25 84.593C135.178 84.2422 135.14 83.8851 135.138 83.527C135.1 83.3427 135.081 83.1551 135.081 82.967V79.267V78.482C135.081 78.22 135.1 77.94 135.138 77.641V76.856C135.138 76.594 135.119 76.333 135.081 76.071V75.286C135.081 74.912 135.063 74.651 135.025 74.501C135.025 74.24 135.006 73.997 134.969 73.772C134.969 73.511 134.95 73.268 134.913 73.044C134.85 72.5933 134.775 72.1445 134.688 71.698C134.654 71.5291 134.617 71.361 134.575 71.194C134.536 71.0022 134.479 70.8145 134.406 70.633C134.346 70.4848 134.289 70.3351 134.237 70.184C134.196 70.0649 134.14 69.9518 134.069 69.848C134.007 69.7582 133.951 69.6646 133.9 69.568L133.787 69.343C133.75 69.343 133.712 69.325 133.675 69.287C133.637 69.287 133.619 69.269 133.619 69.231L133.675 69.287C133.675 69.325 133.694 69.362 133.731 69.399V69.512C133.769 69.512 133.787 69.549 133.787 69.624C133.825 69.661 133.844 69.699 133.844 69.736C133.851 69.7953 133.87 69.8526 133.9 69.904C133.937 70.054 133.994 70.315 134.069 70.689C134.106 70.876 134.125 71.063 134.125 71.249L134.237 71.81V72.427C134.275 72.614 134.294 72.838 134.294 73.1V80.444C134.331 80.556 134.35 80.687 134.35 80.836V81.621L134.463 82.294C134.5 82.518 134.519 82.743 134.519 82.967C134.556 83.191 134.594 83.397 134.631 83.584C134.706 83.808 134.763 84.014 134.8 84.2C134.838 84.35 134.894 84.518 134.969 84.705C135.044 84.892 135.1 85.041 135.138 85.153C135.175 85.265 135.231 85.377 135.306 85.49L135.419 85.602C135.456 85.639 135.475 85.677 135.475 85.714L135.531 85.77L135.756 85.994H135.813V85.994Z" fill="#343434"/>
<path d="M156.336 58.691C156.336 60.261 155.961 61.701 155.211 63.008C154.481 64.2954 153.436 65.376 152.173 66.148C153.448 66.895 154.461 67.942 155.211 69.288C155.961 70.596 156.336 72.034 156.336 73.604V77.248C156.307 78.4055 156.059 79.547 155.605 80.612C155.158 81.6164 154.529 82.5289 153.748 83.303C152.944 84.0613 152.011 84.669 150.992 85.097C149.925 85.5491 148.776 85.7781 147.617 85.77H142.273C142.048 85.77 141.842 85.677 141.654 85.49C141.467 85.303 141.373 85.097 141.373 84.873C141.373 85.097 141.279 85.303 141.092 85.49C141.018 85.582 140.924 85.6553 140.816 85.704C140.708 85.7526 140.591 85.7752 140.473 85.77H137.548C137.548 85.434 137.604 85.19 137.716 85.041L138.166 84.593C138.316 84.406 138.448 84.163 138.56 83.863C138.71 83.565 138.785 83.098 138.785 82.463V68.783C138.673 67.624 138.148 66.783 137.21 66.26C137.623 65.998 138.148 65.868 138.785 65.868V49.833C138.785 49.198 138.71 48.731 138.56 48.432C138.448 48.132 138.316 47.908 138.166 47.759C138.016 47.572 137.866 47.404 137.716 47.254C137.604 47.105 137.548 46.862 137.548 46.526H140.529C140.754 46.526 140.96 46.619 141.148 46.806C141.335 46.956 141.429 47.161 141.429 47.423C141.429 46.825 141.729 46.526 142.329 46.526H147.617C148.776 46.5175 149.925 46.7462 150.992 47.198C152.021 47.6321 152.957 48.2602 153.748 49.048C154.545 49.8083 155.177 50.7242 155.605 51.739C156.055 52.786 156.299 53.889 156.336 55.047V58.691V58.691ZM141.823 63.513C141.823 63.326 141.804 63.12 141.767 62.896V60.99C141.73 60.2055 141.711 59.4203 141.71 58.635C141.71 57.888 141.692 57.178 141.654 56.505C141.617 56.2074 141.598 55.9079 141.598 55.608C141.598 55.308 141.579 55.028 141.542 54.767C141.542 54.467 141.523 54.207 141.485 53.982V53.365C141.485 53.178 141.467 53.01 141.429 52.861V52.188C141.392 52.188 141.373 52.207 141.373 52.244V52.468C141.373 52.58 141.354 52.711 141.317 52.861V53.365C141.317 53.552 141.298 53.758 141.26 53.982V54.767C141.222 55.0453 141.203 55.326 141.204 55.607C141.204 55.907 141.185 56.206 141.148 56.505C141.109 57.2143 141.091 57.9246 141.092 58.635C141.092 59.383 141.073 60.168 141.035 60.99V62.223C141.035 62.448 141.017 62.672 140.979 62.896V68.727C140.979 69.026 140.998 69.25 141.035 69.399V72.483C141.073 72.857 141.092 73.231 141.092 73.604V74.725C141.129 75.062 141.148 75.398 141.148 75.735C141.185 76.071 141.204 76.389 141.204 76.688C141.204 76.949 141.223 77.23 141.26 77.528V78.258C141.298 78.482 141.317 78.688 141.317 78.874V79.434C141.354 79.584 141.373 79.696 141.373 79.771V80.051C141.373 80.089 141.392 80.108 141.429 80.108V79.771V79.435C141.467 79.248 141.485 79.061 141.485 78.875V78.257C141.524 78.0163 141.543 77.7728 141.542 77.529C141.579 77.229 141.598 76.949 141.598 76.688C141.598 76.388 141.617 76.071 141.654 75.735V74.725C141.692 74.389 141.71 74.015 141.71 73.605V72.483C141.748 72.072 141.767 71.661 141.767 71.25V70.016C141.767 69.717 141.785 69.512 141.823 69.399V63.513V63.513ZM153.411 76.519C153.371 76.6066 153.351 76.7026 153.355 76.799V78.089C153.317 78.239 153.298 78.389 153.298 78.538V78.874C153.298 78.949 153.28 79.005 153.242 79.042V79.547C153.202 79.6348 153.183 79.7306 153.186 79.827C153.186 79.902 153.167 79.977 153.13 80.052C153.13 80.126 153.111 80.182 153.073 80.22V80.332L153.017 80.444L153.13 80.388V80.332L153.186 80.276L153.242 80.22C153.242 80.182 153.261 80.145 153.298 80.108L153.411 79.883C153.454 79.7471 153.511 79.6158 153.58 79.491C153.587 79.4316 153.606 79.3744 153.636 79.323C153.666 79.2714 153.685 79.2142 153.692 79.155C153.692 79.117 153.711 79.061 153.748 78.986C153.779 78.9346 153.798 78.8774 153.805 78.818C153.806 78.7399 153.825 78.6631 153.861 78.594V78.426C153.897 78.3564 153.916 78.2793 153.917 78.201C153.955 78.051 153.973 77.902 153.973 77.753L154.086 77.304C154.123 77.192 154.142 77.024 154.142 76.8V76.576C154.178 76.5065 154.198 76.4294 154.198 76.351V74.39C154.198 74.166 154.18 73.998 154.142 73.886V73.661C154.142 73.586 154.123 73.549 154.086 73.549V73.437C154.091 73.2853 154.072 73.1339 154.03 72.988C154.03 72.839 154.011 72.69 153.973 72.54C153.937 72.4707 153.918 72.394 153.917 72.316C153.916 72.238 153.897 72.1613 153.861 72.092C153.861 72.054 153.842 72.035 153.805 72.035V71.923C153.805 71.886 153.786 71.867 153.748 71.867V71.755C153.718 71.7034 153.699 71.6462 153.692 71.587C153.685 71.5277 153.666 71.4706 153.636 71.419C153.606 71.3676 153.587 71.3103 153.58 71.251C153.573 71.1913 153.554 71.1337 153.523 71.082C153.486 71.045 153.467 71.008 153.467 70.97C153.467 70.933 153.448 70.895 153.411 70.858L153.298 70.634C153.279 70.6152 153.261 70.5965 153.242 70.578C153.242 70.54 153.223 70.503 153.186 70.466C153.148 70.428 153.13 70.391 153.13 70.354L153.017 70.241L153.073 70.354V70.466C153.111 70.503 153.13 70.578 153.13 70.69V70.802C153.167 70.802 153.186 70.839 153.186 70.914C153.183 71.0104 153.202 71.1062 153.242 71.194V71.642C153.28 71.679 153.298 71.735 153.298 71.81C153.298 72.147 153.317 72.408 153.355 72.595V73.492C153.392 73.679 153.411 73.978 153.411 74.389V76.519ZM151.105 73.604C151.105 73.118 151.086 72.52 151.048 71.81C151.015 71.1217 150.883 70.4419 150.654 69.792C150.438 69.17 150.071 68.6113 149.586 68.166C149.136 67.68 148.461 67.437 147.561 67.437H145.535C145.13 67.4712 144.751 67.6505 144.467 67.942C144.167 68.241 144.017 68.596 144.017 69.007V81.621C144.017 82.032 144.167 82.388 144.467 82.687C144.767 82.986 145.123 83.135 145.535 83.135H147.561C148.461 83.135 149.136 82.911 149.586 82.462C150.073 82.014 150.429 81.472 150.654 80.836C150.876 80.1842 151.008 79.5053 151.048 78.818C151.086 78.108 151.105 77.51 151.105 77.024V73.604V73.604ZM151.105 55.272C151.105 54.786 151.086 54.188 151.048 53.478C151.016 52.7894 150.883 52.1092 150.654 51.459C150.438 50.837 150.071 50.2783 149.586 49.833C149.136 49.347 148.461 49.105 147.561 49.105H145.535C145.13 49.1389 144.751 49.3179 144.467 49.609C144.167 49.909 144.017 50.263 144.017 50.674V63.29C144.017 63.7 144.167 64.056 144.467 64.355C144.767 64.654 145.123 64.803 145.535 64.803H147.561C148.461 64.803 149.136 64.579 149.586 64.13C150.073 63.682 150.429 63.14 150.654 62.505C150.876 61.8528 151.008 61.1737 151.048 60.486C151.086 59.776 151.105 59.178 151.105 58.692V55.272ZM153.523 60.822L153.58 60.71C153.586 60.6503 153.605 60.5927 153.636 60.541C153.666 60.4894 153.685 60.4322 153.692 60.373C153.692 60.298 153.711 60.223 153.748 60.149C153.779 60.0976 153.798 60.0404 153.805 59.981C153.812 59.9216 153.831 59.8644 153.861 59.813V59.644C153.897 59.5747 153.916 59.498 153.917 59.42C153.955 59.27 153.973 59.121 153.973 58.972L154.086 58.523C154.123 58.411 154.142 58.243 154.142 58.019V57.794C154.178 57.7248 154.197 57.648 154.198 57.57V55.608C154.205 55.4378 154.186 55.2675 154.142 55.103V54.879C154.142 54.804 154.123 54.767 154.086 54.767V54.599C154.086 54.412 154.048 54.132 153.973 53.758C153.937 53.6887 153.918 53.612 153.917 53.534C153.916 53.4556 153.897 53.3786 153.861 53.309C153.861 53.272 153.842 53.253 153.805 53.253V53.141C153.805 53.104 153.786 53.085 153.748 53.085V52.973C153.718 52.9214 153.699 52.8642 153.692 52.805C153.685 52.7454 153.666 52.6879 153.636 52.636C153.606 52.5846 153.587 52.5273 153.58 52.468C153.573 52.4086 153.554 52.3513 153.523 52.3C153.486 52.263 153.467 52.225 153.467 52.188C153.467 52.151 153.448 52.113 153.411 52.076L153.298 51.852C153.279 51.8332 153.261 51.8145 153.242 51.796C153.242 51.758 153.223 51.721 153.186 51.684C153.148 51.646 153.13 51.609 153.13 51.571C153.092 51.534 153.073 51.497 153.073 51.459H153.017L153.073 51.571V51.684C153.111 51.721 153.13 51.796 153.13 51.908V52.02C153.167 52.02 153.186 52.057 153.186 52.132C153.183 52.2284 153.202 52.3242 153.242 52.412V52.861C153.28 52.898 153.298 52.954 153.298 53.029C153.298 53.365 153.317 53.627 153.355 53.814V54.711C153.392 54.898 153.411 55.197 153.411 55.608V57.738C153.371 57.8256 153.351 57.9216 153.355 58.018V59.308C153.317 59.458 153.298 59.608 153.298 59.757V60.093C153.298 60.168 153.28 60.223 153.242 60.261V60.766C153.202 60.8538 153.183 60.9496 153.186 61.046C153.186 61.121 153.167 61.196 153.13 61.27C153.13 61.345 153.111 61.401 153.073 61.438V61.551L153.017 61.663L153.13 61.607V61.551L153.186 61.495L153.242 61.439C153.242 61.401 153.261 61.364 153.298 61.326L153.411 61.102C153.448 60.99 153.486 60.897 153.523 60.822V60.822ZM175.509 82.35C175.509 83.023 175.566 83.527 175.678 83.864C175.828 84.163 175.978 84.406 176.128 84.593C176.278 84.743 176.409 84.892 176.522 85.041C176.672 85.191 176.747 85.434 176.747 85.77H161.446C161.221 85.77 161.015 85.677 160.827 85.49C160.64 85.303 160.546 85.097 160.546 84.873C160.546 85.097 160.452 85.303 160.265 85.49C160.191 85.5821 160.097 85.6554 159.989 85.7041C159.881 85.7527 159.764 85.7753 159.646 85.77H156.721C156.721 85.434 156.777 85.19 156.89 85.041L157.34 84.593C157.49 84.406 157.621 84.163 157.734 83.863C157.884 83.565 157.959 83.098 157.959 82.463V68.783C157.846 67.624 157.321 66.783 156.383 66.26C156.796 65.998 157.321 65.868 157.959 65.868V49.833C157.959 49.198 157.884 48.731 157.734 48.432C157.621 48.132 157.49 47.908 157.34 47.759C157.19 47.572 157.04 47.404 156.89 47.254C156.777 47.105 156.721 46.862 156.721 46.526H159.702C159.927 46.526 160.134 46.619 160.321 46.806C160.509 46.956 160.602 47.161 160.602 47.423C160.602 46.825 160.902 46.526 161.502 46.526H176.747C176.747 46.862 176.672 47.105 176.522 47.254C176.409 47.404 176.278 47.572 176.128 47.759C175.978 47.909 175.828 48.151 175.678 48.488C175.566 48.787 175.509 49.273 175.509 49.946V57.402C174.197 57.402 173.184 57.159 172.472 56.673C171.797 56.15 171.29 55.571 170.953 54.935C170.54 54.225 170.315 53.385 170.278 52.412V50.674C170.278 50.264 170.128 49.908 169.828 49.609C169.544 49.3177 169.164 49.1387 168.759 49.105H164.709C164.304 49.1387 163.924 49.3177 163.64 49.609C163.34 49.909 163.19 50.263 163.19 50.674V63.29C163.19 63.7 163.34 64.056 163.64 64.355C163.94 64.654 164.296 64.803 164.709 64.803H165.103C165.515 64.803 165.853 64.653 166.115 64.355C166.415 64.055 166.565 63.701 166.565 63.29V63.234C166.603 62.673 166.753 62.187 167.015 61.776C167.24 61.402 167.578 61.066 168.028 60.766C168.478 60.468 169.134 60.318 169.997 60.318V71.923C169.134 71.923 168.478 71.773 168.028 71.475C167.578 71.175 167.24 70.839 167.015 70.465C166.753 70.055 166.603 69.569 166.565 69.008C166.565 68.597 166.415 68.242 166.115 67.943C165.988 67.7962 165.833 67.6761 165.659 67.5894C165.486 67.5027 165.297 67.4513 165.103 67.438H164.709C164.303 67.4719 163.924 67.6513 163.64 67.943C163.34 68.242 163.19 68.597 163.19 69.008V81.622C163.19 82.033 163.34 82.389 163.64 82.688C163.94 82.987 164.296 83.136 164.709 83.136H168.759C169.172 83.136 169.528 82.986 169.828 82.687C170.128 82.388 170.278 82.033 170.278 81.622V79.828C170.315 78.894 170.54 78.072 170.953 77.362C171.29 76.726 171.797 76.147 172.472 75.623C173.184 75.1 174.197 74.839 175.509 74.839V82.351V82.35ZM160.996 63.513C160.996 63.326 160.977 63.12 160.94 62.896V60.99C160.903 60.2055 160.885 59.4203 160.884 58.635C160.884 57.888 160.865 57.178 160.827 56.505C160.79 56.2074 160.771 55.9079 160.771 55.608C160.771 55.308 160.752 55.028 160.715 54.767C160.715 54.467 160.696 54.207 160.659 53.982V53.365C160.659 53.178 160.64 53.01 160.602 52.861V52.188C160.565 52.188 160.546 52.207 160.546 52.244V52.468C160.546 52.58 160.527 52.711 160.49 52.861V53.365C160.49 53.552 160.471 53.758 160.434 53.982V54.767C160.395 55.0453 160.376 55.326 160.377 55.607C160.377 55.907 160.359 56.206 160.321 56.505C160.283 57.2143 160.264 57.9246 160.265 58.635C160.265 59.383 160.246 60.168 160.209 60.99V62.223C160.209 62.448 160.19 62.672 160.152 62.896V68.727C160.152 69.026 160.171 69.25 160.209 69.399V72.483C160.246 72.857 160.265 73.231 160.265 73.604V74.725C160.302 75.062 160.321 75.398 160.321 75.735C160.358 76.0514 160.376 76.3695 160.377 76.688C160.377 76.949 160.396 77.23 160.434 77.528V78.258C160.471 78.482 160.49 78.688 160.49 78.874V79.434C160.527 79.584 160.546 79.696 160.546 79.771V80.051C160.546 80.089 160.565 80.108 160.602 80.108V79.771V79.435C160.64 79.248 160.659 79.061 160.659 78.875V78.257C160.696 78.033 160.715 77.79 160.715 77.529C160.752 77.229 160.771 76.949 160.771 76.688C160.771 76.388 160.79 76.071 160.827 75.735V74.725C160.865 74.389 160.884 74.015 160.884 73.605V72.483C160.921 72.072 160.94 71.661 160.94 71.25V70.016C160.94 69.717 160.959 69.512 160.996 69.399V63.513V63.513ZM198.139 88.125C198.551 88.199 198.833 88.33 198.983 88.517C199.17 88.704 199.301 88.891 199.376 89.077C199.451 89.302 199.489 89.545 199.489 89.807C198.289 89.807 197.164 89.657 196.114 89.358C195.086 89.0704 194.129 88.5741 193.301 87.9C192.514 87.228 191.876 86.35 191.388 85.265C190.938 84.181 190.713 82.855 190.713 81.285V73.605C190.713 73.118 190.695 72.52 190.657 71.81C190.624 71.1218 190.491 70.4421 190.263 69.792C190.047 69.17 189.68 68.6113 189.195 68.166C188.745 67.68 188.07 67.437 187.17 67.437H184.863C184.526 67.512 184.226 67.699 183.963 67.997C183.738 68.26 183.626 68.577 183.626 68.951V82.351C183.626 83.023 183.682 83.527 183.794 83.864C183.944 84.163 184.094 84.406 184.244 84.593C184.394 84.743 184.526 84.892 184.638 85.041C184.788 85.191 184.863 85.434 184.863 85.77H181.882C181.657 85.77 181.45 85.677 181.263 85.49C181.075 85.303 180.982 85.097 180.982 84.873C180.982 85.097 180.888 85.303 180.7 85.49C180.626 85.5819 180.532 85.6552 180.424 85.7039C180.317 85.7525 180.2 85.7752 180.082 85.77H177.157C177.157 85.434 177.213 85.19 177.325 85.041L177.775 84.593C177.925 84.406 178.057 84.163 178.169 83.863C178.319 83.565 178.394 83.098 178.394 82.463V68.783C178.282 67.624 177.757 66.783 176.819 66.26C177.232 65.998 177.757 65.868 178.394 65.868V49.833C178.394 49.198 178.319 48.731 178.169 48.432C178.057 48.132 177.925 47.908 177.775 47.759C177.625 47.572 177.475 47.404 177.325 47.254C177.213 47.105 177.157 46.862 177.157 46.526H180.138C180.363 46.526 180.569 46.619 180.757 46.806C180.944 46.956 181.038 47.161 181.038 47.423C181.038 46.825 181.338 46.526 181.938 46.526H187.226C188.385 46.5175 189.534 46.7462 190.601 47.198C191.63 47.6321 192.566 48.2602 193.357 49.048C194.154 49.8083 194.786 50.7242 195.214 51.739C195.664 52.786 195.907 53.889 195.945 55.047V58.691C195.945 60.261 195.57 61.701 194.82 63.008C194.09 64.2954 193.045 65.376 191.782 66.148C193.057 66.895 194.07 67.942 194.82 69.288C195.57 70.596 195.945 72.034 195.945 73.604V83.471C195.982 84.256 196.076 84.985 196.226 85.658C196.376 86.293 196.601 86.835 196.901 87.284C197.201 87.732 197.614 88.012 198.139 88.124V88.125ZM193.02 57.738C192.98 57.8256 192.96 57.9216 192.964 58.018V59.308C192.926 59.458 192.907 59.608 192.907 59.757V60.093C192.907 60.168 192.889 60.223 192.851 60.261V60.766C192.811 60.8538 192.792 60.9496 192.795 61.046C192.795 61.121 192.776 61.196 192.739 61.27C192.739 61.345 192.72 61.401 192.682 61.438V61.551L192.626 61.663L192.739 61.607V61.551L192.795 61.495L192.851 61.439C192.851 61.401 192.87 61.364 192.907 61.326L193.02 61.102C193.063 60.9661 193.12 60.8348 193.189 60.71C193.195 60.6503 193.214 60.5927 193.245 60.541C193.275 60.4894 193.294 60.4322 193.301 60.373C193.301 60.298 193.32 60.223 193.357 60.149C193.388 60.0976 193.407 60.0404 193.414 59.981C193.421 59.9216 193.44 59.8644 193.47 59.813V59.644C193.506 59.5747 193.525 59.498 193.526 59.42C193.564 59.27 193.582 59.121 193.582 58.972L193.695 58.523C193.732 58.411 193.751 58.243 193.751 58.019V57.794C193.787 57.7248 193.806 57.648 193.807 57.57V55.608C193.814 55.4378 193.795 55.2675 193.751 55.103V54.879C193.751 54.804 193.732 54.767 193.695 54.767V54.599C193.695 54.412 193.657 54.132 193.582 53.758C193.546 53.6887 193.527 53.612 193.526 53.534C193.525 53.4556 193.506 53.3786 193.47 53.309C193.47 53.272 193.451 53.253 193.414 53.253V53.141C193.414 53.104 193.395 53.085 193.357 53.085V52.973C193.327 52.9214 193.308 52.8642 193.301 52.805C193.294 52.7454 193.275 52.6879 193.245 52.636C193.215 52.5846 193.196 52.5273 193.189 52.468C193.182 52.4086 193.163 52.3513 193.132 52.3C193.095 52.263 193.076 52.225 193.076 52.188C193.076 52.151 193.057 52.113 193.02 52.076L192.907 51.852C192.888 51.8332 192.87 51.8145 192.851 51.796C192.851 51.758 192.832 51.721 192.795 51.684C192.757 51.646 192.739 51.609 192.739 51.571C192.701 51.534 192.682 51.497 192.682 51.459H192.626L192.682 51.571V51.684C192.72 51.721 192.739 51.796 192.739 51.908V52.02C192.776 52.02 192.795 52.057 192.795 52.132C192.792 52.2284 192.811 52.3242 192.851 52.412V52.861C192.889 52.898 192.907 52.954 192.907 53.029C192.907 53.365 192.926 53.627 192.964 53.814V54.711C193.001 54.898 193.02 55.197 193.02 55.608V57.738V57.738ZM181.432 63.513C181.432 63.326 181.413 63.12 181.375 62.896V60.99C181.339 60.2055 181.32 59.4203 181.319 58.635C181.319 57.888 181.3 57.178 181.263 56.505C181.225 56.2075 181.207 55.9079 181.207 55.608C181.207 55.308 181.188 55.028 181.15 54.767C181.15 54.467 181.132 54.207 181.094 53.982V53.365C181.094 53.178 181.075 53.01 181.038 52.861V52.188C181 52.188 180.982 52.207 180.982 52.244V52.468C180.982 52.58 180.963 52.711 180.925 52.861V53.365C180.925 53.552 180.907 53.758 180.869 53.982V54.767C180.831 55.0453 180.812 55.326 180.813 55.607C180.813 55.907 180.794 56.206 180.757 56.505C180.718 57.2143 180.699 57.9246 180.7 58.635C180.7 59.383 180.682 60.168 180.644 60.99V62.223C180.644 62.448 180.625 62.672 180.588 62.896V68.727C180.588 69.026 180.607 69.25 180.644 69.399V72.483C180.682 72.857 180.7 73.231 180.7 73.604V74.725C180.738 75.062 180.757 75.398 180.757 75.735C180.794 76.071 180.813 76.389 180.813 76.688C180.813 76.949 180.832 77.23 180.869 77.528V78.258C180.907 78.482 180.925 78.688 180.925 78.874V79.434C180.963 79.584 180.982 79.696 180.982 79.771V80.051C180.982 80.089 181 80.108 181.038 80.108V79.771V79.435C181.075 79.248 181.094 79.061 181.094 78.875V78.257C181.132 78.033 181.15 77.79 181.15 77.529C181.187 77.2501 181.206 76.9692 181.207 76.688C181.208 76.3695 181.227 76.0514 181.263 75.735V74.725C181.3 74.389 181.319 74.015 181.319 73.605V72.483C181.357 72.072 181.375 71.661 181.375 71.25V70.016C181.375 69.717 181.394 69.512 181.432 69.399V63.513V63.513ZM190.713 55.272C190.713 54.786 190.695 54.188 190.657 53.478C190.624 52.7895 190.491 52.1094 190.263 51.459C190.047 50.837 189.68 50.2783 189.195 49.833C188.745 49.347 188.07 49.105 187.17 49.105H185.144C184.739 49.1389 184.36 49.3179 184.076 49.609C183.776 49.909 183.626 50.263 183.626 50.674V63.29C183.626 63.7 183.776 64.056 184.076 64.355C184.376 64.654 184.732 64.803 185.144 64.803H187.17C188.07 64.803 188.745 64.579 189.195 64.13C189.682 63.682 190.038 63.14 190.263 62.505C190.484 61.8527 190.617 61.1736 190.657 60.486C190.695 59.776 190.713 59.178 190.713 58.692V55.272ZM194.482 85.994L194.426 85.938L194.37 85.882L194.257 85.658C194.257 85.583 194.22 85.508 194.145 85.434L194.032 85.097C193.991 84.9299 193.953 84.7618 193.92 84.593C193.847 84.2423 193.809 83.8852 193.807 83.527C193.77 83.3426 193.751 83.155 193.751 82.967V79.267V78.482C193.751 78.22 193.77 77.94 193.807 77.641V76.856C193.807 76.594 193.789 76.333 193.751 76.071V75.286C193.751 74.912 193.732 74.651 193.695 74.501C193.695 74.24 193.676 73.997 193.639 73.772C193.639 73.511 193.62 73.268 193.582 73.044C193.519 72.5933 193.444 72.1445 193.357 71.698C193.324 71.5291 193.286 71.3611 193.245 71.194C193.206 71.0022 193.149 70.8145 193.076 70.633C193.016 70.4848 192.959 70.3351 192.907 70.184C192.866 70.0649 192.81 69.9519 192.739 69.848C192.677 69.7582 192.621 69.6647 192.57 69.568L192.457 69.343C192.42 69.343 192.382 69.325 192.345 69.287C192.307 69.287 192.289 69.269 192.289 69.231L192.345 69.287C192.345 69.325 192.364 69.362 192.401 69.399V69.512C192.439 69.512 192.457 69.549 192.457 69.624C192.495 69.661 192.514 69.699 192.514 69.736C192.521 69.7953 192.54 69.8526 192.57 69.904C192.607 70.054 192.664 70.315 192.739 70.689C192.776 70.876 192.795 71.063 192.795 71.249L192.907 71.81V72.427C192.945 72.614 192.964 72.838 192.964 73.1V80.444C193.001 80.556 193.02 80.687 193.02 80.836V81.621L193.132 82.294C193.17 82.518 193.189 82.743 193.189 82.967C193.226 83.191 193.264 83.397 193.301 83.584C193.376 83.808 193.432 84.014 193.47 84.2C193.507 84.35 193.564 84.518 193.639 84.705C193.714 84.892 193.77 85.041 193.807 85.153C193.845 85.265 193.901 85.377 193.976 85.49L194.089 85.602C194.126 85.639 194.145 85.677 194.145 85.714L194.201 85.77L194.426 85.994H194.482V85.994Z" fill="#343434"/>
<path d="M210.947 64.026C212.612 64.026 213.961 65.3705 213.961 67.029C213.961 68.6875 212.612 70.032 210.947 70.032C209.282 70.032 207.933 68.6875 207.933 67.029C207.933 65.3705 209.282 64.026 210.947 64.026Z" fill="#999591"/>
<path d="M19.086 64.026C20.7506 64.026 22.1 65.3705 22.1 67.029C22.1 68.6875 20.7506 70.032 19.086 70.032C17.4214 70.032 16.072 68.6875 16.072 67.029C16.072 65.3705 17.4214 64.026 19.086 64.026Z" fill="#999591"/>
</g>
<defs>
<clipPath id="clip0">
<rect width="231" height="134" fill="white"/>
</clipPath>
</defs>
</svg>
